<svg xmlns="http://www.w3.org/2000/svg" width="1835" height="442" viewBox="0 0 1835 442">
  <defs>
    <style>
      .cls-1 {
        fill: #66b32e;
        fill-rule: evenodd;
      }
    </style>
  </defs>
  <path id="Forma_2" data-name="Forma 2" class="cls-1" d="M0,415.475V15.87C180.487,16.314,360.507,23.359,540.47,32.2c-40.38,0-80.764.41-121.137-.115-40.584-.528-81.156-1.986-121.733-3.036q-0.018.674-.037,1.348c16.349,0.793,32.695,1.626,49.046,2.37,17.634,0.8,35.266,1.823,52.91,2.191,18.8,0.392,37.6.145,56.407,0.153q27.957,0.012,55.914-.032c22.967-.074,45.946.179,68.892-0.565,8.008-.26,15.933-3.064,23.918-5.646l-14.3-1.353q-0.078-.622-0.155-1.244L611.475,21.9c-0.023-.3-0.045-0.6-0.068-0.894H575.53l-0.021-.858,20.639-1.79q-0.006-.435-0.01-0.869l-64.924,1.56L531.133,17.9c4.771-.409,9.536-1.068,14.314-1.187,34.786-.866,69.581-1.429,104.362-2.475,29.621-.89,59.224-2.335,88.838-3.462,20.966-.8,41.941-1.362,62.9-2.237,18.3-.764,36.578-1.871,54.871-2.706a97.018,97.018,0,0,1,14.475.177c2.147,0.225,4.114,2.09,6.186,3.163a6.9,6.9,0,0,0,2.817,1.177c40.964-.5,81.926-1.3,122.891-1.541,26.48-.158,52.97.516,79.45,0.757,18.48,0.168,36.97.083,55.45,0.388,22.98,0.379,45.94.991,68.91,1.6,29.63,0.785,59.26,1.56,88.88,2.536,32.11,1.058,64.22,2.344,96.33,3.527,19.3,0.711,38.6,1.3,57.9,2.151,24.77,1.1,49.54,2.437,74.31,3.6,11.23,0.529,22.47.893,33.7,1.332-0.01.5-.03,1-0.04,1.494l-243.81-3.434v0.554c15.11,0.786,30.22,1.6,45.33,2.352q29.175,1.457,58.35,2.831c17.64,0.814,35.27,1.481,52.9,2.317,16.96,0.8,33.9,1.914,50.86,2.575q27.945,1.09,55.9,1.568c18.64,0.295,37.28.23,55.91,0.231s37.28-.158,55.92-0.159,37.27,0.152,55.91.153,37.28-.114,55.92-0.154c11.27-.024,22.55,0,34.13,0V415.478c-8.81,0-17.57,0-26.34,0q-28.455,0-56.93-.013-27.72-.012-55.44-0.028c-16.14,0-32.35-.762-48.42.344-11.19.769-22.15,4.382-33.28,6.263-11.31,1.909-22.71,3.258-34.07,4.821a12.31,12.31,0,0,1-2.3-.11c-0.2-.509-0.4-1.018-0.61-1.527,2.25-.981,4.42-2.531,6.76-2.852,15.29-2.1,30.61-3.926,45.89-6.856-2.96,0-5.93.175-8.87-.028-18.6-1.288-36.79,2.225-55.1,4.449-16.35,1.987-32.71,4-49.1,5.583-25,2.423-50.02,4.7-75.06,6.645-19.75,1.536-39.54,2.541-59.31,3.679q-35.64,2.05-71.29,3.915c-13.97.732-27.94,1.316-41.91,1.931-2.27.1-4.54,0.014-6.81,0.014-0.04-.587-0.07-1.173-0.11-1.76l144.28-15.163c-0.03-.246-0.05-0.492-0.08-0.738l-171.98,6.164-0.06-.55,42.01-4.539c0.04-.226.07-0.451,0.11-0.677-2.49-.224-4.97-0.542-7.46-0.658-19.92-.928-39.85-1.868-59.78-2.691-6.82-.282-13.66-0.564-20.47-0.267-8.86.388-16.97-2.5-25.38-4.459-6.19-1.439-12.87-.955-19.33-0.989-18.98-.1-37.95-0.041-56.93-0.022q-27.96.027-55.93,0.094-27.72.021-55.443-.012-28.216,0-56.432,0-27.719,0-55.439.021-28.464.011-56.927,0.014c-18.645-.019-37.29-0.116-55.935-0.118s-37.291.1-55.936,0.1-37.29-.066-55.935-0.089c-11.741-.014-23.483,0-36.666,0l7.247,3.691-17.174,5.717q-0.012.525-.023,1.048l21.076,4.015c0.02,0.265.041,0.53,0.061,0.8l-13.7,1.147-0.081,1.185L641,435.827q0.108,0.693.217,1.387c-2.725.468-5.487,1.494-8.171,1.319-27.717-1.8-55.4-4.252-83.137-5.609-26.435-1.293-52.923-1.5-79.388-2.189-11.316-.293-22.635-0.534-33.949-0.91-5.026-.166-6.281-1.707-6.876-7.792a653.571,653.571,0,0,0-124.625-6.18c-0.074,1-.162,2.2-0.271,3.686a70.344,70.344,0,0,1-8.01-.954c-16.052-3.787-32.371-3.24-48.667-3.208-18.81.037-37.621,0.006-56.431,0q-27.72,0-55.44-.013-28.464-.009-56.927-0.018-27.949.027-55.9,0.125C15.795,415.488,8.162,415.475,0,415.475ZM1082.45,0.649c70.11,0.394,140.17,2.671,210.16,7.265L1082.39,2.831ZM275.406,14.889L64.294,9.823C69.633,6.054,237.314,10.038,275.406,14.889ZM408.812,430.642c-21.593-2.283-43.188-4.546-64.772-6.912-1.08-.118-2.061-1.132-3.089-1.729,0.938-.972,1.713-2.425,2.85-2.807a12.993,12.993,0,0,1,5.787-.635c14.266,2.042,28.481,4.457,42.768,6.328,7.386,0.967,14.892.983,22.329,1.615,1.481,0.126,2.891,1.1,4.333,1.682a29.662,29.662,0,0,1-4.617,1.347,42.574,42.574,0,0,1-5.479.055Q408.868,430.114,408.812,430.642ZM1423.99,440.8l118.02-10.113c0.06,0.749.13,1.5,0.19,2.245-39.12,5.792-78.54,8.067-118.06,9.069ZM1022.98,4.709H895.312C899.741,2.372,1017.29,0,1022.96,2.918,1022.97,3.515,1022.97,4.112,1022.98,4.709Z"/>
</svg>
