<?xml version="1.0" standalone="no"?>
<!DOCTYPE svg PUBLIC "-//W3C//DTD SVG 20010904//EN"
 "http://www.w3.org/TR/2001/REC-SVG-20010904/DTD/svg10.dtd">
<svg version="1.0" xmlns="http://www.w3.org/2000/svg"
 width="674.000000pt" height="912.000000pt" viewBox="0 0 674.000000 912.000000"
 preserveAspectRatio="none">
<metadata>
Created by potrace 1.15, written by Peter Selinger 2001-2017
</metadata>
<g transform="translate(0.000000,912.000000) scale(0.100000,-0.100000)"
fill="#261611" stroke="none">
<path d="M469 9105 c-65 -24 -118 -55 -130 -76 -10 -19 -17 -21 -65 -15 -48 5
-61 3 -110 -24 -43 -23 -70 -30 -110 -30 l-54 0 0 -157 0 -157 32 -33 c27 -28
30 -37 21 -51 -6 -9 -20 -16 -32 -15 l-21 3 0 -3433 c0 -2278 4 -3444 10
-3468 9 -31 18 -40 62 -59 28 -12 62 -35 75 -51 31 -37 57 -39 51 -4 -6 30 1
27 115 -54 130 -92 198 -129 259 -141 68 -13 115 -45 97 -66 -13 -16 -7 -19
60 -29 26 -3 101 -35 180 -77 195 -102 204 -107 191 -124 -16 -18 -6 -30 40
-54 50 -25 69 -26 47 -2 -27 30 -21 42 15 31 18 -5 73 -9 122 -9 l88 0 122
-116 c164 -158 373 -380 458 -486 39 -49 75 -88 80 -88 11 0 14 -7 -39 95 -22
45 -60 105 -83 134 -47 60 -40 58 36 -6 28 -24 54 -43 57 -43 7 0 -96 173
-121 205 -9 11 100 -96 243 -237 143 -141 261 -256 263 -254 3 4 -504 613
-608 730 -66 74 -73 99 -14 47 20 -18 47 -37 60 -43 14 -7 24 -20 24 -32 0
-33 26 -63 65 -76 19 -6 35 -18 35 -25 0 -8 22 -35 50 -61 27 -26 67 -68 87
-95 20 -27 45 -49 55 -49 10 0 18 3 18 6 0 3 -30 49 -66 102 -53 78 -59 90
-30 63 33 -32 66 -37 66 -11 0 5 14 10 30 10 24 0 30 4 30 21 0 18 2 20 16 8
14 -11 14 -13 -1 -22 -22 -12 -1 -37 30 -37 12 0 34 -9 48 -20 27 -22 47 -26
47 -10 0 6 -27 44 -60 86 -66 82 -120 159 -120 169 0 4 12 -3 26 -14 15 -12
33 -21 40 -21 8 0 14 -11 14 -25 0 -42 29 -85 67 -101 19 -9 38 -13 41 -9 3 3
-5 24 -18 48 l-23 42 24 -21 c13 -12 40 -24 60 -28 l36 -6 -8 -43 c-12 -62
-11 -66 16 -93 26 -26 56 -25 35 1 -8 10 -7 16 6 23 13 7 15 17 11 41 l-7 32
43 -29 c23 -17 51 -39 61 -51 27 -29 37 -26 29 10 l-6 31 67 -49 c37 -26 69
-58 72 -71 11 -42 23 -22 22 39 -1 59 -1 60 -25 54 -33 -8 -63 13 -92 65 l-23
42 41 -30 c49 -36 100 -50 111 -32 5 9 9 9 14 1 4 -6 18 -11 32 -11 19 0 24
-5 24 -26 0 -16 10 -34 28 -47 15 -12 86 -83 159 -157 72 -74 135 -132 138
-128 8 8 -58 117 -188 313 -69 104 -102 148 -186 249 -9 10 38 -10 104 -45 79
-41 135 -78 165 -109 40 -41 51 -47 92 -48 59 -3 205 -78 200 -104 -4 -22 13
-31 37 -18 17 8 35 1 107 -41 48 -28 120 -66 160 -85 96 -43 403 -220 524
-301 52 -34 100 -63 107 -63 14 0 -142 152 -193 189 -19 13 -32 26 -30 28 2 2
34 -10 71 -27 37 -17 70 -29 72 -27 2 2 -34 37 -79 77 -103 92 -109 97 -78 78
58 -35 602 -320 605 -316 6 6 -665 446 -754 495 -43 24 -88 54 -101 68 l-24
26 57 -26 c32 -14 66 -25 77 -25 11 0 20 -6 20 -13 0 -22 43 -54 83 -61 23 -4
53 -21 80 -46 43 -41 57 -48 57 -30 0 6 30 -10 67 -35 63 -42 103 -56 103 -36
0 4 -28 30 -61 57 -34 27 -71 57 -83 67 -20 18 -20 18 12 2 18 -9 39 -14 45
-12 7 2 29 -11 50 -29 41 -37 80 -48 56 -16 -22 29 -53 52 -71 52 -23 0 -23
27 0 32 10 2 24 -7 34 -24 22 -35 41 -37 32 -4 -7 31 23 42 68 25 28 -10 39
-25 72 -96 39 -83 60 -112 73 -99 11 10 -108 299 -128 311 -19 12 -8 20 30 21
47 2 48 0 68 -111 7 -44 25 -104 39 -132 26 -56 50 -67 95 -43 15 9 19 7 19
-5 0 -27 25 -11 28 18 4 32 -18 45 -52 29 -13 -5 -28 -7 -35 -2 -9 5 -6 9 8
13 32 8 25 36 -14 52 -39 17 -69 57 -35 48 22 -6 26 7 9 24 -8 8 -8 13 0 17
16 10 13 37 -5 57 -15 16 -13 16 38 2 29 -9 62 -22 73 -29 32 -23 49 -18 31 8
-25 36 -19 39 34 18 28 -11 58 -20 68 -20 9 0 29 -14 44 -32 27 -33 27 -33 27
-8 0 14 -6 33 -13 43 -8 10 -12 27 -9 37 6 22 -16 27 -34 9 -17 -17 -54 -4
-98 36 l-40 35 37 -15 c47 -19 129 -20 122 -2 -3 9 6 12 36 9 23 -2 40 -9 40
-17 0 -18 30 -41 71 -54 19 -6 104 -50 188 -96 83 -47 154 -85 156 -85 37 0
-301 287 -470 399 -108 73 -135 99 -135 133 0 15 -4 28 -10 28 -5 0 -10 -7
-10 -16 0 -9 -7 -14 -17 -12 -28 5 -21 31 12 47 26 13 36 12 100 -10 42 -14
86 -38 110 -59 22 -20 52 -41 66 -47 14 -6 45 -28 70 -49 51 -45 131 -84 136
-68 2 6 17 8 33 6 39 -6 38 11 -2 42 -171 130 -364 269 -413 296 -57 32 -165
108 -165 116 0 7 133 -63 220 -116 197 -121 353 -211 357 -206 3 2 -59 52
-137 111 -78 58 -144 113 -147 121 -3 8 -11 14 -19 14 -21 0 -130 88 -142 115
-6 13 -36 38 -66 56 -50 30 -73 59 -46 59 22 0 8 26 -25 49 -20 13 -34 25 -32
27 1 2 24 -5 51 -14 33 -12 65 -35 107 -79 73 -78 146 -104 102 -37 -10 16
-17 29 -15 31 8 10 -3 24 -36 44 -44 27 -238 184 -249 202 -4 6 9 0 29 -15 20
-16 49 -32 63 -38 27 -10 75 -4 75 10 0 4 -106 92 -235 195 -129 103 -235 189
-235 192 0 3 23 -12 51 -33 42 -31 54 -35 69 -26 21 13 53 -8 174 -110 65 -54
96 -70 96 -49 0 5 -45 50 -99 100 -57 53 -101 101 -103 114 -2 12 -12 23 -23
26 -26 5 -115 79 -115 96 0 7 -7 18 -15 25 -19 16 -19 30 0 30 8 0 32 -19 55
-42 40 -42 47 -40 41 10 -1 6 2 12 6 12 14 0 143 -134 143 -148 0 -18 110
-132 127 -132 23 0 14 27 -25 77 -65 82 -100 138 -104 163 -2 17 -10 26 -25
28 -29 4 -30 35 -2 63 11 11 18 27 15 35 -3 9 -1 12 4 9 6 -3 10 -16 10 -29 0
-12 4 -26 8 -32 5 -5 17 -30 26 -57 19 -50 42 -65 33 -21 -4 25 -4 25 17 6 11
-10 57 -49 101 -88 260 -226 495 -442 495 -457 0 -15 -54 30 -245 208 -329
307 -356 329 -355 293 1 -27 29 -58 131 -146 96 -82 107 -96 118 -139 22 -86
34 -101 204 -273 93 -93 166 -174 162 -180 -20 -32 -83 7 -100 61 -4 11 -21
26 -40 33 -18 8 -68 45 -111 83 -152 132 -258 215 -262 204 -6 -18 11 -34 168
-167 80 -68 168 -145 195 -172 74 -72 235 -205 241 -199 3 3 -2 19 -10 36 -56
108 -34 107 77 -2 47 -45 90 -92 96 -105 7 -12 18 -22 27 -22 29 0 26 31 -10
85 -20 30 -36 64 -36 75 0 17 -4 19 -25 14 -25 -6 -36 10 -12 19 6 3 3 6 -8 6
-32 1 -63 29 -67 59 -2 21 -41 59 -173 174 -200 174 -276 242 -255 232 18 -9
162 -129 270 -224 41 -37 82 -70 90 -73 8 -4 62 -47 120 -95 92 -77 110 -98
143 -163 39 -76 81 -129 103 -129 18 0 27 -36 15 -59 -17 -30 -13 -59 8 -71
24 -12 54 -2 47 15 -13 35 42 15 102 -36 30 -27 82 -40 82 -21 0 4 -34 41 -75
82 -64 63 -75 80 -75 108 0 29 -13 48 -98 136 -98 101 -147 166 -140 187 2 6
32 -21 67 -60 58 -66 91 -87 91 -60 0 18 -175 222 -233 272 -30 25 -87 83
-128 129 -40 46 -62 74 -49 62 134 -113 252 -221 280 -256 50 -62 132 -148
141 -148 5 0 9 11 9 24 0 14 -27 58 -70 111 -64 78 -69 88 -54 99 15 12 14 18
-16 80 -18 37 -37 69 -42 72 -4 3 -20 29 -34 57 l-26 52 99 -95 c184 -179 251
-240 262 -240 26 0 7 30 -63 99 -58 58 -76 83 -81 112 -5 31 -11 38 -38 43
-22 5 -54 31 -111 91 -43 47 -83 85 -87 85 -5 0 -9 -13 -9 -30 0 -17 -9 -39
-21 -51 l-21 -21 21 -22 c30 -31 26 -46 -11 -46 -25 0 -42 11 -87 59 -81 85
-103 117 -96 141 3 11 13 20 21 20 8 0 14 3 14 8 -1 22 -107 161 -159 209 -67
60 -99 103 -62 84 42 -23 157 -115 198 -159 33 -35 47 -43 65 -39 13 4 30 2
38 -3 10 -7 11 -10 3 -10 -18 0 -16 -39 2 -46 21 -9 70 10 73 29 2 8 -14 35
-35 59 l-38 42 55 -39 c30 -21 68 -49 83 -62 34 -27 57 -30 57 -5 -1 53 -23
108 -58 141 -35 35 -36 36 -13 39 21 3 23 7 17 40 -3 21 -6 47 -6 60 0 15 -6
22 -20 22 -52 0 -130 77 -130 128 0 12 -5 22 -10 22 -6 0 -27 7 -48 16 -37 16
-37 16 -12 25 18 8 34 6 62 -7 61 -28 53 -11 -23 47 -40 30 -79 65 -87 79
l-16 25 30 -26 c16 -14 40 -30 54 -36 14 -6 49 -29 78 -53 39 -30 51 -45 43
-53 -6 -6 -11 -15 -11 -19 0 -11 99 -60 109 -54 19 12 161 -126 161 -155 0 -5
4 -9 9 -9 7 0 31 81 31 105 0 3 -11 5 -23 5 -13 0 -32 9 -43 21 -18 20 -18 21
1 35 19 14 17 17 -40 71 -57 54 -59 57 -35 61 29 5 59 29 70 57 7 18 16 12 78
-51 73 -76 98 -94 130 -94 10 0 27 -9 37 -20 10 -11 24 -20 32 -20 7 0 22 -5
33 -12 32 -20 35 -1 6 42 -14 22 -26 46 -26 54 0 8 -10 22 -22 30 -17 12 -19
19 -11 27 9 9 24 4 60 -19 27 -18 50 -27 52 -21 2 6 -11 31 -29 55 -18 25 -30
47 -28 50 3 2 21 -3 41 -11 49 -20 86 -19 93 3 3 9 11 27 16 39 10 20 4 29
-63 90 -41 37 -114 105 -162 151 -49 46 -112 98 -140 117 -29 18 -97 71 -152
117 -55 46 -128 105 -161 130 -34 26 -88 76 -120 111 -33 35 -140 128 -239
207 -216 171 -276 227 -267 248 4 11 1 14 -9 10 -30 -11 -56 9 -63 50 -3 23
-13 42 -22 46 -23 9 -24 8 -24 -15 0 -35 -18 -11 -25 34 -10 59 -23 80 -46 74
-10 -3 -19 -2 -19 3 0 4 -32 42 -70 83 l-70 75 30 7 c44 10 37 21 -20 35 -41
10 -52 18 -64 43 -26 60 -27 77 -1 77 18 0 21 -5 18 -23 -4 -19 3 -24 56 -41
33 -10 66 -25 73 -33 8 -10 22 -13 41 -9 21 4 37 -1 63 -20 43 -33 43 -51 -1
-70 -19 -8 -35 -19 -35 -24 0 -13 7 -13 31 1 11 5 29 7 40 4 19 -6 20 -8 4
-26 -19 -20 -14 -49 8 -49 8 0 20 7 27 15 7 8 25 15 41 15 23 0 51 -20 130
-92 55 -51 128 -118 164 -148 39 -34 58 -56 49 -58 -34 -8 1 -63 53 -83 33
-12 39 -6 25 25 -9 20 7 13 86 -41 68 -47 157 -126 307 -274 245 -242 467
-432 357 -305 -15 18 -72 100 -127 183 -74 112 -110 157 -137 173 -21 11 -42
18 -48 15 -12 -8 -148 112 -156 138 -9 29 -62 85 -113 119 -25 17 -70 58 -99
89 -29 32 -88 84 -130 114 -42 31 -104 78 -136 105 -33 27 -95 67 -139 89 -47
24 -84 49 -91 63 -6 13 -56 55 -111 93 -55 39 -146 106 -203 151 -68 54 -119
86 -155 97 -46 15 -54 22 -73 62 -15 34 -17 45 -7 45 23 0 14 25 -23 61 -20
18 -59 61 -87 93 l-52 60 65 -44 c36 -24 89 -61 117 -82 29 -21 54 -37 55 -36
6 5 104 -67 121 -88 9 -13 25 -22 35 -21 10 0 32 -9 49 -22 39 -29 58 -25 38
9 -8 14 -23 42 -32 63 -15 30 -22 37 -39 32 -16 -3 -26 2 -38 19 -8 14 -23 27
-33 30 -10 3 -34 32 -54 64 l-37 58 65 -25 c54 -21 63 -28 59 -46 -3 -11 -2
-25 2 -31 10 -16 48 -34 71 -34 13 0 26 -12 36 -30 13 -25 22 -30 51 -30 l36
0 -23 -20 -24 -20 24 -20 c32 -27 56 -22 56 11 l-1 26 56 -35 c30 -20 73 -50
95 -68 22 -17 55 -35 74 -39 46 -10 111 -69 104 -95 -4 -16 0 -20 21 -20 41 0
85 -23 161 -84 38 -31 73 -56 77 -56 5 0 8 10 8 21 0 26 -41 66 -220 219 -154
131 -302 271 -295 278 3 3 11 -2 18 -11 8 -11 31 -18 67 -21 30 -3 65 -8 78
-12 41 -12 27 34 -24 80 -44 40 -83 96 -66 96 4 0 26 -18 47 -41 22 -22 61
-54 87 -70 46 -30 46 -30 31 -59 -19 -39 -13 -64 16 -68 19 -3 22 0 16 17 -8
26 1 26 74 4 73 -22 93 -36 105 -75 7 -19 24 -40 44 -51 76 -45 40 13 -99 158
-76 80 -109 121 -109 139 0 3 11 6 25 6 19 0 28 -8 39 -35 10 -22 22 -35 34
-35 10 0 27 -7 38 -15 21 -16 54 -20 54 -7 0 5 -10 17 -21 28 -12 10 -39 42
-60 70 -21 28 -59 64 -86 79 -26 15 -77 56 -113 90 -36 33 -92 81 -124 106
-39 29 -76 69 -108 118 -44 67 -54 102 -25 84 65 -38 245 -169 292 -213 33
-30 69 -60 80 -66 11 -5 37 -20 58 -33 20 -12 37 -20 37 -16 0 4 -25 34 -55
68 -30 33 -53 62 -51 65 3 2 59 -38 125 -89 117 -90 161 -118 161 -100 0 16
-451 401 -890 761 -238 195 -494 407 -569 470 -75 63 -156 131 -181 150 -121
96 -380 270 -510 343 -36 20 -76 46 -90 57 l-25 20 23 0 c46 0 18 27 -97 94
-121 70 -184 126 -141 126 11 0 20 6 20 13 0 6 -76 94 -168 193 -92 100 -241
262 -332 360 -361 393 -1145 1138 -1281 1217 -35 20 -92 61 -127 91 -132 112
-387 184 -503 141z"/>
<path d="M4860 4506 c0 -8 12 -24 28 -35 l27 -21 -27 6 c-19 4 -28 2 -28 -7 0
-21 283 -290 294 -279 6 6 5 15 -4 24 -7 10 -10 26 -6 42 7 25 7 25 34 9 15
-10 65 -57 112 -106 74 -77 89 -89 118 -89 30 0 35 -5 53 -44 11 -25 27 -47
37 -49 57 -16 72 -17 71 -5 0 7 -86 87 -191 178 -105 91 -197 175 -205 188 -9
12 -22 22 -31 22 -14 0 -119 75 -206 147 -41 35 -76 43 -76 19z"/>
<path d="M5723 2244 c-3 -9 8 -35 27 -62 28 -39 29 -43 9 -24 -26 23 -49 29
-49 12 0 -5 -13 -24 -28 -42 -37 -42 -44 -62 -32 -93 8 -20 6 -27 -11 -35 -13
-7 -19 -19 -17 -33 2 -17 11 -23 40 -25 28 -2 37 1 40 14 2 13 22 1 88 -51 47
-37 106 -91 132 -119 36 -40 49 -48 59 -39 15 15 7 28 -106 169 -94 116 -88
119 28 15 49 -45 82 -68 92 -65 26 10 17 31 -30 70 -43 34 -46 40 -43 78 3 38
1 41 -36 59 -28 14 -37 23 -33 37 3 12 -7 30 -30 52 -19 18 -43 48 -54 66 -23
35 -36 40 -46 16z"/>
<path d="M6100 1762 c0 -4 9 -13 20 -20 11 -6 33 -41 49 -76 22 -49 41 -73 80
-102 28 -21 51 -44 51 -50 0 -15 -25 -36 -33 -27 -4 3 -7 0 -7 -8 0 -8 5 -20
12 -27 14 -14 52 -16 43 -2 -3 5 -2 16 2 25 13 22 69 -27 96 -83 21 -44 47
-67 47 -42 0 16 -156 267 -190 307 -15 17 -29 35 -31 41 -4 9 -121 72 -134 72
-3 0 -5 -3 -5 -8z"/>
<path d="M5920 1552 c0 -5 7 -16 16 -23 9 -7 31 -35 49 -61 85 -127 234 -288
266 -288 20 0 20 1 3 29 -10 16 -39 54 -64 85 -26 30 -64 84 -83 119 -27 47
-50 72 -89 99 -58 38 -98 55 -98 40z"/>
<path d="M5795 1408 c4 -13 18 -48 33 -78 14 -30 26 -68 26 -85 1 -25 5 -30
30 -33 16 -2 33 1 39 7 17 17 35 13 42 -9 6 -20 35 -28 35 -10 0 6 -17 29 -39
53 -21 23 -48 61 -60 84 -33 66 -121 124 -106 71z"/>
<path d="M730 1216 c0 -22 38 -63 111 -121 73 -59 99 -68 99 -34 0 18 4 21 28
16 15 -3 35 -9 45 -12 9 -4 17 -3 17 1 0 14 -173 123 -229 145 -61 23 -71 23
-71 5z"/>
</g>
</svg>
