<?xml version="1.0" encoding="UTF-8" standalone="no"?>
<svg
   xmlns:dc="http://purl.org/dc/elements/1.1/"
   xmlns:cc="http://creativecommons.org/ns#"
   xmlns:rdf="http://www.w3.org/1999/02/22-rdf-syntax-ns#"
   xmlns:svg="http://www.w3.org/2000/svg"
   xmlns="http://www.w3.org/2000/svg"
   xmlns:sodipodi="http://sodipodi.sourceforge.net/DTD/sodipodi-0.dtd"
   xmlns:inkscape="http://www.inkscape.org/namespaces/inkscape"
   width="1835"
   height="225"
   viewBox="0 0 1835 225"
   version="1.1"
   id="svg7"
   sodipodi:docname="brochazo_verde2.svg"
   inkscape:version="0.92.3 (2405546, 2018-03-11)">
  <metadata
     id="metadata11">
    <rdf:RDF>
      <cc:Work
         rdf:about="">
        <dc:format>image/svg+xml</dc:format>
        <dc:type
           rdf:resource="http://purl.org/dc/dcmitype/StillImage" />
        <dc:title></dc:title>
      </cc:Work>
    </rdf:RDF>
  </metadata>
  <sodipodi:namedview
     pagecolor="#ffffff"
     bordercolor="#666666"
     borderopacity="1"
     objecttolerance="10"
     gridtolerance="10"
     guidetolerance="10"
     inkscape:pageopacity="0"
     inkscape:pageshadow="2"
     inkscape:window-width="1920"
     inkscape:window-height="1017"
     id="namedview9"
     showgrid="false"
     inkscape:zoom="0.39891008"
     inkscape:cx="553.5393"
     inkscape:cy="202.91433"
     inkscape:window-x="-8"
     inkscape:window-y="-8"
     inkscape:window-maximized="1"
     inkscape:current-layer="svg7" />
  <defs
     id="defs4">
    <style
       id="style2">
      .cls-1 {
        fill: #66b32e;
        fill-rule: evenodd;
      }
    </style>
  </defs>
  <path
     id="Forma_2"
     data-name="Forma 2"
     class="cls-1"
     d="M 0,211.7335 V 11.86318 c 180.487,0.22207 360.507,3.74577 540.47,8.16777 -40.38,0 -80.764,0.20507 -121.137,-0.0575 C 378.749,19.70936 338.177,18.98011 297.6,18.45493 q -0.018,0.33712 -0.037,0.67423 c 16.349,0.39664 32.695,0.81328 49.046,1.1854 17.634,0.40014 35.266,0.91181 52.91,1.09588 18.8,0.19606 37.6,0.0725 56.407,0.0765 q 27.957,0.006 55.914,-0.016 c 22.967,-0.037 45.946,0.0895 68.892,-0.2826 8.008,-0.13004 15.933,-1.53252 23.918,-2.82396 l -14.3,-0.67673 q -0.078,-0.3111 -0.155,-0.62221 l 21.28,-2.18624 c -0.023,-0.15005 -0.045,-0.3001 -0.068,-0.44715 H 575.53 l -0.021,-0.42915 20.639,-0.8953 q -0.006,-0.21758 -0.01,-0.43465 l -64.924,0.78027 -0.081,-0.5747 c 4.771,-0.20457 9.536,-0.53418 14.314,-0.5937 34.786,-0.43315 69.581,-0.71474 104.362,-1.23792 29.621,-0.44515 59.224,-1.1679 88.838,-1.73159 20.966,-0.40013 41.941,-0.68123 62.9,-1.11888 18.3,-0.38213 36.578,-0.93582 54.871,-1.35346 a 97.018,48.525466 0 0 1 14.475,0.0885 c 2.147,0.11254 4.114,1.04536 6.186,1.58204 a 6.9,3.4511711 0 0 0 2.817,0.5887 c 40.964,-0.25009 81.926,-0.65022 122.891,-0.77076 26.48,-0.079 52.97,0.25809 79.45,0.37863 18.48,0.084 36.97,0.0415 55.45,0.19406 22.98,0.18957 45.94,0.49567 68.91,0.80027 29.63,0.39264 59.26,0.78027 88.88,1.26843 32.11,0.52918 64.22,1.1724 96.33,1.7641 19.3,0.35562 38.6,0.65022 57.9,1.07587 24.77,0.55018 49.54,1.21891 74.31,1.80061 11.23,0.26459 22.47,0.44665 33.7,0.66622 -0.01,0.25009 -0.03,0.50017 -0.04,0.74726 l -243.81,-1.71758 v 0.27709 c 15.11,0.39313 30.22,0.80027 45.33,1.1764 q 29.175,0.72875 58.35,1.41598 c 17.64,0.40714 35.27,0.74075 52.9,1.15889 16.96,0.40014 33.9,0.95733 50.86,1.28794 q 27.945,0.54518 55.9,0.78427 c 18.64,0.14755 37.28,0.11503 55.91,0.11553 18.63,5.1e-4 37.28,-0.079 55.92,-0.0795 18.64,-5e-4 37.27,0.076 55.91,0.0765 18.64,5e-4 37.28,-0.057 55.92,-0.077 11.27,-0.012 22.55,0 34.13,0 V 211.735 c -8.81,0 -17.57,0 -26.34,0 q -28.455,0 -56.93,-0.007 -27.72,-0.006 -55.44,-0.014 c -16.14,0 -32.35,-0.38113 -48.42,0.17206 -11.19,0.38463 -22.15,2.19174 -33.28,3.13256 -11.31,0.95483 -22.71,1.62956 -34.07,2.41132 a 12.31,6.1570893 0 0 1 -2.3,-0.055 c -0.2,-0.25458 -0.4,-0.50917 -0.61,-0.76376 2.25,-0.49066 4.42,-1.26593 6.76,-1.42648 15.29,-1.05036 30.61,-1.96367 45.89,-3.42916 -2.96,0 -5.93,0.0875 -8.87,-0.014 -18.6,-0.64422 -36.79,1.11288 -55.1,2.22526 -16.35,0.99383 -32.71,2.00067 -49.1,2.79244 -25,1.21191 -50.02,2.3508 -75.06,3.32363 -19.75,0.76826 -39.54,1.27093 -59.31,1.84013 q -35.64,1.02534 -71.29,1.95816 c -13.97,0.36612 -27.94,0.65822 -41.91,0.96583 -2.27,0.05 -4.54,0.007 -6.81,0.007 -0.04,-0.2936 -0.07,-0.5867 -0.11,-0.8803 l 144.28,-7.58407 c -0.03,-0.12304 -0.05,-0.24609 -0.08,-0.36913 l -171.98,3.08305 -0.06,-0.27509 42.01,-2.27027 c 0.04,-0.11304 0.07,-0.22558 0.11,-0.33862 -2.49,-0.11204 -4.97,-0.27109 -7.46,-0.32911 -19.92,-0.46416 -39.85,-0.93432 -59.78,-1.34596 -6.82,-0.14105 -13.66,-0.28209 -20.47,-0.13354 -8.86,0.19406 -16.97,-1.25043 -25.38,-2.23026 -6.19,-0.71974 -12.87,-0.47766 -19.33,-0.49467 -18.98,-0.05 -37.95,-0.0205 -56.93,-0.011 q -27.96,0.0135 -55.93,0.047 -27.72,0.0105 -55.443,-0.006 -28.216,0 -56.432,0 -27.719,0 -55.439,0.0105 -28.464,0.006 -56.927,0.007 c -18.645,-0.01 -37.29,-0.058 -55.935,-0.059 -18.645,-0.001 -37.291,0.05 -55.936,0.05 -18.645,0 -37.29,-0.033 -55.935,-0.0445 -11.741,-0.007 -23.483,0 -36.666,0 l 7.247,1.84613 -17.174,2.85947 q -0.012,0.26259 -0.023,0.52417 l 21.076,2.00819 c 0.02,0.13254 0.041,0.26509 0.061,0.40013 l -13.7,0.5737 -0.081,0.5927 40.61,1.42798 q 0.108,0.34662 0.217,0.69374 c -2.725,0.23408 -5.487,0.74725 -8.171,0.65972 -27.717,-0.9003 -55.4,-2.12672 -83.137,-2.80545 -26.435,-0.64672 -52.923,-0.75026 -79.388,-1.09487 -11.316,-0.14655 -22.635,-0.26709 -33.949,-0.45516 -5.026,-0.083 -6.281,-0.85379 -6.876,-3.89732 A 653.571,326.89643 0 0 0 305.071,211.9221 c -0.074,0.50017 -0.162,1.10038 -0.271,1.84363 a 70.344,35.183939 0 0 1 -8.01,-0.47716 c -16.052,-1.89415 -32.371,-1.62055 -48.667,-1.60455 -18.81,0.0185 -37.621,0.003 -56.431,0 q -27.72,0 -55.44,-0.007 -28.464,-0.005 -56.927,-0.009 -27.949,0.0135 -55.9,0.0625 C 15.795,211.74 8.162,211.7335 0,211.7335 Z M 1082.45,4.25009 c 70.11,0.19707 140.17,1.33596 210.16,3.63374 L 1082.39,5.34146 Z M 275.406,11.37251 64.294,8.83865 c 5.339,-1.88514 173.02,0.10754 211.112,2.53386 z m 133.406,207.94706 c -21.593,-1.14189 -43.188,-2.27377 -64.772,-3.45717 -1.08,-0.059 -2.061,-0.56619 -3.089,-0.86479 0.938,-0.48617 1.713,-1.21292 2.85,-1.40398 a 12.993,6.4987052 0 0 1 5.787,-0.31761 c 14.266,1.02135 28.481,2.22926 42.768,3.16508 7.386,0.48366 14.892,0.49166 22.329,0.80777 1.481,0.063 2.891,0.55019 4.333,0.84128 a 29.662,14.836034 0 0 1 -4.617,0.67373 42.574,21.294226 0 0 1 -5.479,0.0275 q -0.054,0.26409 -0.11,0.52818 z m 1015.178,5.08073 118.02,-5.05822 c 0.06,0.37463 0.13,0.75025 0.19,1.12288 -39.12,2.89698 -78.54,4.03487 -118.06,4.53604 z M 1022.98,6.28078 H 895.312 c 4.429,-1.16889 121.978,-2.3553 127.648,-0.8958 0.01,0.2986 0.01,0.5972 0.02,0.8958 z"
     inkscape:connector-curvature="0"
     style="fill:#66b32e;fill-rule:evenodd;stroke-width:0.70722675" />
</svg>
