<?xml version="1.0" encoding="UTF-8" standalone="no"?>
<svg
   xmlns:dc="http://purl.org/dc/elements/1.1/"
   xmlns:cc="http://creativecommons.org/ns#"
   xmlns:rdf="http://www.w3.org/1999/02/22-rdf-syntax-ns#"
   xmlns:svg="http://www.w3.org/2000/svg"
   xmlns="http://www.w3.org/2000/svg"
   viewBox="0 0 3431.9468 1521.72"
   preserveAspectRatio="none"
   height="1521.72"
   width="3431.9468"
   xml:space="preserve"
   id="svg2"
   version="1.1"><metadata
     id="metadata8"><rdf:RDF><cc:Work
         rdf:about=""><dc:format>image/svg+xml</dc:format><dc:type
           rdf:resource="http://purl.org/dc/dcmitype/StillImage" /></cc:Work></rdf:RDF></metadata><defs
     id="defs6"><clipPath
       id="clipPath20"
       clipPathUnits="userSpaceOnUse"><path
         id="path18"
         d="M 0,6504.55 V 0 h 14669.8 v 6504.55 z" /></clipPath></defs><g
     transform="matrix(1.3333333,0,0,-1.3333333,0,1521.72)"
     id="g10"><g
       transform="scale(0.17546)"
       id="g12"><g
         id="g14"><g
           clip-path="url(#clipPath20)"
           id="g16"><path
             id="path22"
             style="fill:#261611;fill-opacity:1;fill-rule:nonzero;stroke:none"
             d="m 9554.31,5004.02 c -2.97,-7.96 -5.93,-15.92 -8.84,-23.87 53.18,-21.4 106.3,-42.81 159.47,-64.21 2.62,7.13 5.3,14.27 7.92,21.4 -52.83,22.23 -105.72,44.45 -158.55,66.68 z m -4023.13,305.16 c 4.14,8.67 8.28,17.32 12.42,25.99 -46.57,15.67 -93.14,31.33 -139.71,46.99 -3.14,-8.86 -6.29,-17.72 -9.43,-26.58 45.58,-15.47 91.15,-30.94 136.72,-46.4 z m 48.38,-638.82 c 7.15,10.76 14.3,21.53 21.46,32.29 -48.09,26.4 -96.18,52.78 -144.28,79.18 -4.97,-8.27 -9.94,-16.53 -14.91,-24.79 45.91,-28.9 91.82,-57.79 137.73,-86.68 z m 8465.24,761.91 c 2.8,8.74 5.6,17.48 8.4,26.21 -61.1,20.09 -122.3,40.16 -183.4,60.25 -3.1,-9.93 -6.3,-19.85 -9.5,-29.78 61.5,-18.89 123,-37.79 184.5,-56.68 z m 397.6,-417.18 c -108.1,25.26 -203.3,47.48 -313.6,73.23 57.8,-79.1 166.3,-101.48 313.6,-73.23 z m -9197.73,48.89 c -59.97,114.31 -321.06,264.4 -378.34,220.72 18.44,-16.69 33.87,-37.72 54.62,-47.8 31.28,-15.2 69.15,-17.65 99.11,-34.56 72.78,-41.07 142.62,-87.36 224.61,-138.36 z m 402.48,975.56 c -4.12,-8.2 -8.24,-16.4 -12.36,-24.59 92.32,-43.86 185.45,-86.1 276.75,-132.01 91.02,-45.79 180.21,-95.25 270.26,-143.09 3.14,6.56 6.27,13.12 9.47,19.69 -159.41,137.14 -354.39,203.41 -544.12,280 z m 1547.87,-498.39 c 30.27,6.08 56.2,11.29 75.41,15.14 -88.57,20.98 -179.13,44.75 -270.83,62.58 -23.26,4.52 -50.16,-9.87 -75.35,-15.56 1.48,-7.36 2.91,-14.73 4.39,-22.1 22,-1.21 46.45,3.24 65.49,-4.89 33.22,-14.16 65.08,-33.64 93.29,-56.16 8.89,-7.11 9.29,-33.08 3.88,-46.48 -2.68,-6.55 -28.84,-8.56 -42.29,-4.98 -157.02,41.66 -313.63,84.56 -470.25,127.59 -102.07,28.05 -212.3,35.33 -294.08,115.42 -5.88,5.72 -15.16,12.98 -21.77,12.02 -52.15,-7.45 -104.07,-16.73 -169.62,-27.74 51.69,-24.76 92.16,-47.16 134.85,-63.89 60.18,-23.6 149.55,-25.51 176.74,-68.3 41.6,-65.3 94.49,-90.03 156.27,-111.07 53.23,-18.13 109.2,-28.21 163.97,-41.84 -16.13,24.2 -38.53,33.9 -54.94,49.77 -13.63,13.1 -20.18,33.49 -29.87,50.66 23.08,11.11 47.19,32.89 69.02,30.82 31.8,-3.01 61.95,-23.37 92.9,-36.02 133.02,-54.37 269.12,-87.51 415.14,-58.36 -7.13,29.66 -14.25,59.51 -22.35,93.39 z m 5659.08,79.19 c -6.7,-5.47 -13.5,-10.94 -20.2,-16.41 16.3,-20.7 28.5,-48.93 49.7,-60.44 38.7,-20.92 81.6,-36.96 124.7,-46.11 142.2,-30.2 289.1,-44.12 426.5,-88.45 92.3,-29.82 184.8,-87.63 252.2,-157.09 51.1,-52.48 99.8,-91.68 166.8,-112.81 48.7,-15.35 97.3,-30.71 126.1,-39.78 43.9,22.98 71.9,37.65 102.6,53.76 -67.6,33.48 -135.7,67.23 -206.6,102.38 18.1,23.04 31.6,40.29 48.1,61.16 -13.7,11.77 -25.1,26.1 -39.9,33.67 -74,37.67 -148.6,73.87 -223.2,110 -115.4,55.82 -234,74.58 -359.7,36.48 -21.5,-6.54 -49.4,0.21 -72.4,7.14 -125.2,37.75 -249.8,77.46 -374.7,116.5 z m 1815.7,35.07 c 0,-191.25 0,-382.5 0,-573.74 -45.8,8.08 -92.2,13.44 -137.2,24.89 -66.9,17.06 -133.8,35.23 -198.5,59.05 -44.9,16.53 -84.2,48.45 -129.2,64.3 -55.8,19.63 -114.9,29.77 -172.6,44 52.1,-79.26 417.6,-210.37 637.5,-246.89 0,-1675.67 0,-3351.35 0,-5027.02 -2676.6,0.171875 -5353.32,0.34375 -8029.94,1.19922 -21.66,0 -44.97,4.89844 -64.63,13.84768 -97.58,44.2851 -194.86,89.4221 -291.07,136.6131 -590.79,289.922 -1181.87,579.219 -1771.63,871.21 -316.23,156.57 -631.4,315.38 -944.58,477.95 -427.79,222.08 -854.32,446.65 -1279.32,674.03 -325.42,174.1 -648.79,352.14 -970.75,532.56 -147.92,82.89 -291.12,174.36 -434.911,264.41 -117.383,73.5 -229.676,155.44 -349.16,225.2 -219.871,128.36 -399.418,295.95 -519.1762,521.21 -18.51171,34.82 -20.96093,105.14 1.3828,129.6 63.8711,69.91 137.0664,136.1 240.8944,147.37 29.457,3.2 57.945,15.26 87.899,23.53 -41.52,104.65 -37.832,121.92 53.027,166.86 63.227,31.29 95.687,70.23 90.973,146.27 -4.586,74.03 28.406,96.83 105.254,99.06 179.652,5.19 353.878,-20.63 524.017,-80.15 165.55,-57.93 336.86,-98.45 489.98,-190.79 68.39,-41.24 145.93,-76.82 253.12,-44.12 -56.47,30.87 -97.54,53.33 -146.69,80.21 62.51,22.82 100.69,53.76 62.29,119.09 -3.28,5.58 2.18,17.46 5.54,25.6 22.98,55.56 45.27,111.45 70.45,166.01 8.95,19.39 22.71,38.37 38.83,52.27 31.88,27.5 65.01,54.58 101.06,76.07 101.12,60.25 199.76,127.43 307.23,173.59 136.86,58.76 283.24,94.95 422.19,149.37 153.99,60.31 308.36,109.57 476.56,100.67 35.41,-1.88 71.27,8.15 107.05,9.64 43.65,1.82 90.84,10.93 130.4,-1.91 70.62,-22.91 136.66,-59.92 206.96,-92.11 21.41,89.84 89.2,60.6 136.58,50.98 73.8,-14.99 143.84,-47.83 216.23,-70.75 44.25,-14.02 89.9,-23.64 134.93,-35.24 2.55,9.61 5.1,19.22 7.65,28.84 -55.7,16.2 -113.23,27.95 -166.54,49.94 -46.06,18.99 -114.13,4.72 -139.34,83.9 33.03,0 57.32,2.81 80.72,-0.56 55.36,-7.97 111.08,-15.84 165.15,-29.65 38.11,-9.74 74.39,-27.79 110.28,-44.69 30.44,-14.33 59.16,-32.34 88.64,-48.72 l -6.19,1.62 c 70.87,-49.94 142.59,-98.73 212.26,-150.29 36.97,-27.37 70.39,-59.55 105.42,-89.56 -4,-7.79 -7.99,-15.58 -11.99,-23.38 -33.01,0 -66.03,0 -99.03,0.04 -37.91,17.34 -74.97,37.12 -114.24,50.41 -11.12,3.76 -28.65,-11.49 -43.24,-18.02 12.71,-8.44 24.73,-22.66 38.25,-24.25 39.98,-4.74 80.56,-4.5 120.91,-6.19 5.95,-6.46 11.15,-17.59 17.95,-18.66 137.18,-21.74 274.53,-42.33 419.92,-64.36 0.75,-1.38 11.29,-12.51 12.96,-24.85 11.19,-82.63 69.95,-105.22 140.23,-115.08 8.58,-1.2 16.6,-6.43 24.88,-9.79 8.27,0.41 16.54,0.81 24.81,1.22 16.25,-26.22 32.49,-52.44 54.2,-87.47 24.1,-12.79 79.13,-23.19 97.08,-54.7 89.65,-157.45 204.83,-224.21 372.04,-201.16 10.33,1.43 21.61,-4.44 32.52,-6.64 33.75,-6.75 67.55,-13.38 99.18,-19.64 42.12,101.81 -72.43,98.75 -90.29,157.78 92.17,33.74 197.9,-35.11 284.81,47.86 -78.93,43.52 -168.07,68.3 -181.81,175.44 36.42,3.81 65.54,6.85 94.67,9.9 -41.21,15.51 -81.22,13.09 -120.71,16.53 -19.89,1.74 -40.75,11.17 -57.97,22.19 -41.13,26.37 -78.34,59.34 -120.75,83.21 -96.93,54.55 -194.88,107.57 -294.7,156.58 -55.44,27.23 -114.35,48.91 -173.69,66.32 -72.71,21.35 -147.79,34.52 -221.1,54.01 -12.79,3.4 -21.93,20.53 -32.76,31.32 13.45,7.16 31.73,23.95 39.6,20.01 95.09,-47.7 180.64,3.89 270.28,22.43 -37.55,16.63 -75.38,28.83 -113.9,38.11 -38.99,9.39 -78.7,15.74 -118.03,23.7 -35.17,7.1 -83.67,-14.91 -100.87,46.84 32.99,6.43 61.58,11.99 90.16,17.57 -88.02,12.87 -137.14,73.06 -200.51,123.11 -85.87,67.81 -200.91,98.66 -303.43,145.36 l 1.89,-1.94 c -29.99,16.9 -58.16,39.94 -90.32,49.5 -76.98,22.87 -156.89,36.07 -233.35,60.36 -24.95,7.93 -47.53,35.38 -61.41,59.53 -4.69,8.16 23.51,50.08 32.09,48.68 75.25,-12.36 149.68,-13 225.16,-3.89 12.58,1.51 27.08,-14.79 41,-22.26 15.67,-8.39 30.9,-18.82 47.68,-23.69 102.75,-29.82 207.06,-54.77 308.53,-88.38 81.12,-26.87 147.27,-27.09 197.6,54.59 9.18,14.9 40.7,25.73 59.59,22.9 36.74,-5.5 72.04,-21.45 107.57,-34.1 65.76,-23.43 131.25,-47.6 201.09,-72.99 11.06,58.24 -8.19,77.74 -49.42,83.37 -28.48,3.89 -56.63,10.81 -84.61,17.65 -88.46,21.65 -176.27,46.31 -265.32,65.13 -65.26,13.79 -135.11,11.26 -197.39,32.32 -70.33,23.78 -131.03,69.14 -151.45,158.39 67.43,-7.92 130.5,-14.3 193.19,-23.32 19.38,-2.8 37.41,-14.05 56.66,-19.15 16.68,-4.41 34.22,-5.59 51.38,-8.19 0.69,17.32 7.49,37.53 0.94,51.44 -21.1,44.71 -0.39,59.6 39.18,60.9 17.38,0.57 37.65,-2.75 52.02,-11.68 38.98,-24.23 74.88,-33.54 122.42,-18.13 28.63,9.28 67.85,-1.07 98.3,-12.9 97.92,-38.04 193.98,-80.88 290.76,-121.87 3.08,5.33 6.16,10.66 9.24,15.98 -25.31,20.4 -47.93,46.26 -76.39,60.2 -97.64,47.81 -197.62,90.81 -295.86,137.44 -12.05,5.72 -18.95,22.27 -28.24,33.8 3.93,5.13 7.86,10.24 11.79,15.37 114.62,-20.57 232.17,-31.35 343.05,-64.45 111.08,-33.18 215.5,-88.64 330.94,-137.79 -27.12,-8.25 -46.82,-14.24 -76.23,-23.18 39.53,-14.23 69.39,-35.17 97.6,-33.24 87.83,6.01 152.18,-21.56 213.67,-88.09 64.23,-69.49 135.81,-66.89 201.13,-3.36 -14.08,7.6 -27.7,15.79 -42.01,22.55 -99.33,46.91 -198.9,93.27 -298.19,140.29 -88.22,41.79 -199.77,46.65 -245.53,156.51 -5.37,12.9 -21.59,24.74 -35.47,30.07 -121.03,46.45 -240.5,111.09 -374.89,88.64 -132.24,-22.1 -245.85,31.43 -364.58,67.86 -34.1,10.47 -68.47,22.22 -99.97,38.65 -64.8,33.8 -125.59,76.07 -192.23,105.31 -43.63,19.13 -55.34,41.03 -42.09,77.78 144.84,75.32 296.8,97.73 453.54,97.38 11.05,-0.03 22.37,3.47 33.11,6.77 175.82,54.01 337.58,0.64 494.15,-70.96 71.25,-32.59 132.36,-86.82 202.56,-122.36 179.16,-90.69 360.74,-176.49 541.46,-264.06 51.98,-25.19 129.94,-36.42 151.15,-77.31 44.05,-84.91 123.16,-63.96 183.86,-95.96 -6.84,18.68 -19.1,30.29 -29.24,43.57 -13.91,18.23 -26.16,37.74 -39.1,56.69 23.48,10.07 46.17,25.71 70.56,29.17 84.69,12.01 156.45,-26.01 230.54,-60.87 82.07,-38.62 167.33,-71.7 253.62,-99.78 104.07,-33.88 210.93,-59.27 316.14,-89.63 113.47,-32.73 226.49,-66.85 339.67,-100.55 106.92,-31.84 213.96,-63.21 320.53,-96.09 75.18,-23.18 149.67,-48.53 222.68,-72.32 2.79,25.97 4.27,53.7 5.98,53.71 37.96,0.27 80.53,6.85 111.99,-8.6 16.13,-7.91 12.48,-56.22 18.69,-91.55 16.87,-4.75 47.53,-11.52 76.89,-21.95 81.67,-29.04 160.66,-70.27 244.67,-87.32 173.37,-35.18 349.59,-56.46 524.16,-86.15 88.63,-15.06 176.23,-35.98 265.08,-54.41 -0.52,3.95 3.53,26.49 -5.93,37.44 -47.65,55.35 -113.99,98.93 -105.09,186.22 0.28,2.99 -4.85,7.95 -8.55,9.68 -80.48,37.9 -157.82,90.48 -242.62,109.43 -116.33,25.97 -218.34,74.94 -323.04,127.58 -102.7,51.63 -207.85,137.16 -336.43,42.29 38.02,-13.85 77.91,-15.35 116.15,-24.12 18.24,-4.18 33.29,-22.21 49.76,-33.97 -12.66,-16.44 -24.96,-46.65 -38.02,-46.96 -55.34,-1.3 -112.9,-1.26 -165.85,12.7 -51.69,13.63 -98.77,44.78 -158.21,73.17 8.89,-37.63 14.08,-59.54 19.26,-81.45 -5.92,-6.18 -11.85,-12.36 -17.78,-18.54 -75.97,52.04 -153.02,102.61 -226.72,157.77 -10.37,7.79 -4.1,37.89 -5.58,57.67 6.21,6.64 12.42,13.27 18.58,19.9 -192.18,61.62 -384.25,123.44 -576.54,184.72 -46.91,14.94 -96.15,23.98 -140.66,43.95 -20.06,9.01 -31.06,38.14 -46.22,58.14 21.37,12.52 42.4,35.15 64.17,35.89 127.27,4.3 254.93,7.74 382.14,3.52 292.83,-9.7 588,33.24 877.63,-53.86 109.2,-32.83 222.96,-50.85 318.08,-117.11 84.24,-58.66 163.97,-123.82 244.39,-187.82 26.27,-20.94 48.39,-47.22 82.98,-81.57 6.84,68.97 34.42,65.33 71.81,45.8 87.31,-45.61 177.59,-85.99 263.08,-134.74 36.08,-20.57 41.66,-13.69 55.91,20.86 72.5,176.1 147.44,351.22 223.98,525.63 65.09,148.36 133.43,295.3 201.54,445.55 4.9,0 14.6,2.18 22.7,-0.55 10,-3.41 19.1,-10.36 28,-16.63 112.5,-79.3 224.9,-158.66 337.1,-238.42 7,-4.95 10.2,-15.35 17.2,-20 81.3,-53.58 162.9,-106.54 244.4,-159.67 20,-8.24 28,-42.97 46.9,-50.56 127.4,-51.2 256.1,-99.52 386.6,-142.23 40.1,-13.15 76.8,-15.49 88.6,-66.51 3.7,-16.07 31,-33.89 50.1,-37.86 65.9,-13.63 132.6,-24.55 199.5,-30.58 53.4,-4.81 107.6,-0.98 169.5,-0.98 -28.6,-79.19 29.5,-89.92 70.3,-105.4 53.2,-20.21 114.6,-21.37 164.9,-46.19 101.7,-50.25 194.2,-120.86 298.3,-164.29 92.2,-38.43 178.5,-128.78 295.6,-65.84 8,4.3 22.7,-0.46 33,-4.36 81.1,-30.66 160.4,-67.23 243.2,-91.78 70.4,-20.89 144.9,-28.2 217.6,-41.52 1.9,9.47 3.8,18.94 5.7,28.41 -72.1,17.43 -146.7,28.25 -215.7,53.95 -84.8,31.53 -164.7,75.89 -247,114.01 -203.9,94.4 -410.5,183.35 -610.7,284.73 -96.5,48.84 -184,117.27 -270.5,183.51 -59.1,45.3 -92.6,50.42 -110.4,10.21 31.4,-28.87 59.7,-54.71 98.9,-90.76 -98.4,-21.21 -127.8,2.87 -214.3,151.51 17.9,8.03 36,23.89 52,22 86.4,-10.18 179.9,-7.34 256.5,-41.36 173.2,-76.79 337.9,-172.56 506.4,-260.33 88.4,-48.15 173.9,-101.63 264.8,-143.7 111.5,-51.68 212.3,-136.62 348.5,-121.88 16.5,1.78 35.5,-21.05 53.4,-32.18 38.9,-24.05 75.9,-52.92 117.9,-68.95 13.3,-5.1 39.5,24.65 60.4,37.41 7.5,4.52 17.9,10.11 25.1,8.12 55.1,-15.42 113.5,-25.4 163.9,-50.8 86.4,-43.53 173.7,-63.54 284.6,-49.6 -87.5,37.52 -159.6,72.24 -234.3,99.46 -103.9,37.84 -209.7,70.6 -315.2,104.03 -14.4,4.57 -31.7,-0.1 -47.6,0.51 -50.2,1.9 -104.4,-7.07 -150,8.64 -124,42.75 -243.1,99.47 -366.7,143.75 -67.5,24.19 -123.7,87.94 -206.3,63.91 -13.4,74.64 -80.4,85.59 -133.8,112.86 -133.4,68.08 -266.6,136.29 -401.3,205.17 60,84.8 178.3,90.96 199.8,11.05 17.4,-64.93 50.7,-64.59 94.4,-79.08 86.2,-28.64 169,-68.34 256,-93.9 126.4,-37.12 255.4,-65.77 383.1,-98.04 1.8,5.78 3.4,11.56 5.1,17.33 -130.6,73.13 -261.1,146.27 -391.6,219.4 25,8.41 48.2,7.04 68.6,-1.11 52.9,-21.06 102.5,-55.21 157,-65.93 122.3,-24.07 247.2,-35.11 370.3,-55.68 43,-7.18 109.9,-16.46 120.4,-42.85 21.7,-54.58 60.7,-60.12 99.9,-62.25 86.1,-4.67 172.8,-2.79 259.1,0.94 66.1,2.85 116.3,-20.2 146.2,-78.08 21.9,-42.27 48.2,-36.58 91.6,-17.4 -97.1,127.64 -248.9,172.5 -355.2,278.09 26.7,-0.46 51.7,-6.56 76.9,-11.94 98.1,-20.95 196,-42.31 294.3,-61.74 14.5,-2.85 40.5,-1.24 44.8,6.95 33.7,63.71 76.9,40.03 124.4,21.23 20.2,-8 46.2,-1.33 83.7,-1.33 -40.2,48.02 -70.1,83.84 -101.9,121.83 9.9,2.97 17,7.75 22,6.17 149.1,-47.02 300.1,-89.26 446.6,-143.64 171.3,-63.62 338.7,-137.93 507.8,-207.6" /><path
             id="path24"
             style="fill:#261611;fill-opacity:1;fill-rule:nonzero;stroke:none"
             d="m 4277.35,4958.41 c -59.11,89.55 -157.26,110.91 -248.89,145.41 -36.71,13.83 -71.57,36.13 -102.72,60.43 -74.37,58 -145.45,120.21 -219.18,179.08 -18.7,14.93 -42.32,23.69 -63.67,35.28 7.45,10.27 14.9,20.53 22.35,30.79 20.7,-1.32 41.39,-3 62.1,-3.89 33.43,-1.44 68.13,-8.57 100.04,-2.12 53.83,10.88 209.21,-41.55 248.75,-81.48 21.75,-21.98 56.35,-34.49 87.41,-43.33 73.04,-20.79 147.85,-35.28 221.09,-55.46 31.61,-8.71 61.08,-25.2 99.6,-41.58 -84.67,-57.97 -158.32,22.7 -230.21,2.33 65.77,-35.92 130.54,-72.55 196.53,-106.83 34.47,-17.91 72.54,-29.16 106.08,-48.47 15.48,-8.92 23.98,-29.95 35.64,-45.5 -17.03,-9.55 -34.07,-19.1 -61.25,-34.33 37.98,-51.24 76.36,-103.04 114.75,-154.85 -3.32,-5.92 -6.65,-11.84 -9.98,-17.76 -33.96,13.66 -70.74,22.78 -101.34,41.84 -84.91,52.89 -158.63,125.76 -263.27,142.03 -0.02,0.03 6.17,-1.59 6.17,-1.59" /><path
             id="path26"
             style="fill:#261611;fill-opacity:1;fill-rule:nonzero;stroke:none"
             d="m 5095.44,4466.05 c -23.02,34.77 -75.68,63.38 -28.65,114.15 45.48,49.09 104.39,54.05 151.23,16.53 41.33,-33.09 44.5,-70.49 0.24,-98.78 -27.84,-17.79 -65.01,-20.95 -98,-30.68 -8.28,-0.41 -16.55,-0.81 -24.82,-1.22" /><path
             id="path28"
             style="fill:#261611;fill-opacity:1;fill-rule:nonzero;stroke:none"
             d="m 8717.31,5454.07 c 90.39,51.29 398.15,-94.53 480.39,-223.21 -69.02,-25.75 -409.89,130.8 -480.39,223.21" /><path
             id="path30"
             style="fill:#261611;fill-opacity:1;fill-rule:nonzero;stroke:none"
             d="m 4152.56,5703.77 c -7.49,9.59 -21.27,27.25 -48.44,62.05 54.47,0 89.7,4.84 123.06,-1 69.51,-12.16 67.23,-67.5 63.41,-120.36 -3.87,-53.71 -45.66,-46.45 -81.24,-48.01 -11.31,-0.48 -24.49,-3.72 -33.65,0.76 -27.89,13.66 -54.23,30.47 -81.17,46.05 18.76,19.55 37.51,39.12 58.03,60.51" /><path
             id="path32"
             style="fill:#261611;fill-opacity:1;fill-rule:nonzero;stroke:none"
             d="m 5438.4,4357.78 c 40.78,-15.5 72.21,-22.41 97.49,-38.82 17.11,-11.11 25.57,-35.57 37.9,-54.05 -20.38,-10.61 -42.2,-32.04 -60.86,-29.59 -41.02,5.41 -81.48,20.47 -119.9,36.91 -11.8,5.05 -25.14,37.97 -22.63,40.08 21.41,17.98 46.32,31.78 68,45.47" /><path
             id="path34"
             style="fill:#261611;fill-opacity:1;fill-rule:nonzero;stroke:none"
             d="m 11838.6,6284.8 c 134.8,0.37 235,-85.27 345.4,-145.26 -3.2,-7.94 -6.5,-15.88 -9.7,-23.81 -114.6,49.72 -229.2,99.43 -343.9,149.15 2.7,6.64 5.5,13.28 8.2,19.92" /><path
             id="path36"
             style="fill:#261611;fill-opacity:1;fill-rule:nonzero;stroke:none"
             d="m 4619.42,5915.51 c -105.81,-30.84 -297.47,67.97 -297.02,145.55 96.05,-47.06 187.84,-92.04 297.02,-145.55" /><path
             id="path38"
             style="fill:#261611;fill-opacity:1;fill-rule:nonzero;stroke:none"
             d="m 11334.7,6078.18 c -38.2,-58.21 -67,-58.86 -211.9,-4.82 80.3,65.11 137.8,66.42 211.9,4.82" /><path
             id="path40"
             style="fill:#261611;fill-opacity:1;fill-rule:nonzero;stroke:none"
             d="m 3770.04,5677.51 c -28.82,40.42 -61.25,76.62 -57.03,81.56 21.5,25.23 50.24,50.08 81.1,59.02 14.98,4.34 40.13,-26.39 60.68,-41.24 -23.54,-27.58 -47.08,-55.17 -84.75,-99.34" /><path
             id="path42"
             style="fill:#261611;fill-opacity:1;fill-rule:nonzero;stroke:none"
             d="m 5426.77,4469.52 c 49.66,-12.08 105.88,-11.54 100.41,-68.33 -5.64,-58.6 -64.66,-26.92 -100.9,-32.73 -4.23,-0.68 -10.38,-0.41 -13.09,2.15 -19.88,18.71 -39.11,38.11 -58.54,57.3 24.04,13.87 48.08,27.73 72.12,41.61" /><path
             id="path44"
             style="fill:#261611;fill-opacity:1;fill-rule:nonzero;stroke:none"
             d="m 4515.06,6039.7 c -45.56,40.28 -82.43,72.87 -119.3,105.47 16.56,10.45 33.16,29.83 49.69,29.78 65.39,-0.21 126.84,-43.5 119.03,-81.74 -3.12,-15.29 -23.96,-26.96 -49.42,-53.51" /><path
             id="path46"
             style="fill:#261611;fill-opacity:1;fill-rule:nonzero;stroke:none"
             d="m 4424.27,5355.93 c 0.08,-36.13 -11.28,-66.02 -53.66,-58.73 -46.29,7.97 -91.36,23.13 -136.51,36.67 -0.87,0.26 1.12,26.06 6.48,28.21 21.83,8.78 46.14,19.55 68.35,17.4 39.51,-3.83 78.17,-16.51 117.2,-25.49 0.03,0 -1.86,1.94 -1.86,1.94" /><path
             id="path48"
             style="fill:#261611;fill-opacity:1;fill-rule:nonzero;stroke:none"
             d="m 11006.2,6007.81 c 65.1,-11.88 127.1,-23.18 193.4,-35.29 -0.5,-12.18 -1.4,-29.44 -2.2,-44.08 -35,-26.6 -165.7,27.11 -191.2,79.37" /><path
             id="path50"
             style="fill:#261611;fill-opacity:1;fill-rule:nonzero;stroke:none"
             d="m 3911.47,6100.86 c 66.26,-45.04 122.58,-83.31 190.01,-129.15 -85.93,-24.92 -196.06,51.24 -190.01,129.15" /><path
             id="path52"
             style="fill:#261611;fill-opacity:1;fill-rule:nonzero;stroke:none"
             d="m 1718.34,4275.52 c -44.71,12.96 -85.67,22.61 -124.46,37.8 -8.58,3.36 -15.8,28.4 -12.05,39.58 3.35,10.03 22.17,19.58 35.02,20.88 50.9,5.16 100.59,-35.87 101.49,-98.26" /><path
             id="path54"
             style="fill:#261611;fill-opacity:1;fill-rule:nonzero;stroke:none"
             d="m 4626.7,5249.63 c -47.88,-80.74 -93.16,-37.99 -134.28,-29.17 -6.54,1.4 -14.58,23.08 -11.9,32.53 2.65,9.39 18.96,22.48 27.57,21.3 36.91,-5.03 73.19,-14.72 118.61,-24.66" /><path
             id="path56"
             style="fill:#261611;fill-opacity:1;fill-rule:nonzero;stroke:none"
             d="m 11414.9,6416.11 c 14.8,7.68 31.4,23.98 44,21.34 32.9,-6.86 64.1,-22.02 96,-33.88 -10.9,-11.79 -23.5,-34.71 -32.5,-33.4 -34.4,4.99 -67.7,17.82 -101.3,27.72 -2.1,6.07 -4.1,12.15 -6.2,18.22" /><path
             id="path58"
             style="fill:#261611;fill-opacity:1;fill-rule:nonzero;stroke:none"
             d="m 6996.92,5951.22 c -82.76,-31.97 -114.62,-9.7 -107.21,70.48 40.18,-26.41 73.7,-48.45 107.21,-70.48" /><path
             id="path60"
             style="fill:#261611;fill-opacity:1;fill-rule:nonzero;stroke:none"
             d="m 3636.43,5625.92 c -56.59,-40.4 -91.08,-26.2 -112.49,14.82 -3.75,7.19 12.58,24.86 19.63,37.69 30.95,-17.5 61.91,-35 92.86,-52.51" /></g></g></g></g></svg>