<?xml version="1.0" encoding="UTF-8" standalone="no"?>
<!-- Created with Inkscape (http://www.inkscape.org/) -->

<svg
   xmlns:dc="http://purl.org/dc/elements/1.1/"
   xmlns:cc="http://creativecommons.org/ns#"
   xmlns:rdf="http://www.w3.org/1999/02/22-rdf-syntax-ns#"
   xmlns:svg="http://www.w3.org/2000/svg"
   xmlns="http://www.w3.org/2000/svg"
   xmlns:sodipodi="http://sodipodi.sourceforge.net/DTD/sodipodi-0.dtd"
   xmlns:inkscape="http://www.inkscape.org/namespaces/inkscape"
   width="100"
   height="100"
   viewBox="0 0 26.458333 26.458334"
   version="1.1"
   id="svg8"
   inkscape:version="0.92.4 (5da689c313, 2019-01-14)"
   sodipodi:docname="cat_icono_planeacion_v_ngo.svg">
  <defs
     id="defs2" />
  <sodipodi:namedview
     id="base"
     pagecolor="#ffffff"
     bordercolor="#666666"
     borderopacity="1.0"
     inkscape:pageopacity="0.0"
     inkscape:pageshadow="2"
     inkscape:zoom="1.979899"
     inkscape:cx="8.3987384"
     inkscape:cy="63.581195"
     inkscape:document-units="px"
     inkscape:current-layer="layer1"
     showgrid="false"
     units="px"
     inkscape:window-width="1920"
     inkscape:window-height="1018"
     inkscape:window-x="-8"
     inkscape:window-y="-8"
     inkscape:window-maximized="1" />
  <metadata
     id="metadata5">
    <rdf:RDF>
      <cc:Work
         rdf:about="">
        <dc:format>image/svg+xml</dc:format>
        <dc:type
           rdf:resource="http://purl.org/dc/dcmitype/StillImage" />
        <dc:title />
      </cc:Work>
    </rdf:RDF>
  </metadata>
  <g
     inkscape:label="Capa 1"
     inkscape:groupmode="layer"
     id="layer1"
     transform="translate(0,-270.54165)">
    <path
       style="fill:#040404;stroke-width:0.21262723;fill-opacity:1"
       d="m 12.480075,296.16089 c -0.938142,-0.24967 -1.554924,-1.1007 -1.554924,-2.14549 0,-0.69585 0.134873,-0.97709 0.744194,-1.55176 0.613479,-0.57858 0.744196,-0.85375 0.744196,-1.56665 0,-0.84658 0.01567,-0.86478 0.744195,-0.86478 0.728525,0 0.744196,0.0183 0.744196,0.86478 0,0.71883 0.130305,0.98768 0.772049,1.59293 0.72005,0.67909 0.76459,0.7943 0.661316,1.71055 -0.173305,1.53756 -1.366281,2.35667 -2.855222,1.96042 z m 1.379332,-1.4934 c 0.394522,-0.39453 0.302938,-0.96304 -0.213398,-1.32469 -0.399258,-0.27965 -0.532897,-0.28554 -0.903666,-0.0399 -0.530916,0.35188 -0.664058,0.89674 -0.320324,1.31092 0.310677,0.37435 1.087658,0.4033 1.437388,0.0536 z m -8.5688781,-1.42805 c -0.5651246,-0.24445 -1.2980252,-1.07132 -1.4793396,-1.66902 -0.2059552,-0.67893 0.2370753,-1.86685 0.8447184,-2.265 0.2853613,-0.18696 0.9600493,-0.33635 1.5191711,-0.33635 0.8034343,0 1.1265934,-0.11564 1.6060008,-0.575 l 0.6001745,-0.575 0.4648747,0.46487 0.4648759,0.46487 -0.5590853,0.58854 c -0.452896,0.47676 -0.5556683,0.78325 -0.5410978,1.61369 0.01511,0.8616 -0.080694,1.12368 -0.6006436,1.64296 -0.6691021,0.66823 -1.6414626,0.93879 -2.3196491,0.64544 z m 1.4883911,-2.1441 c 0,-0.68252 -0.056664,-0.74967 -0.6837432,-0.81028 -0.5814011,-0.0562 -0.70418,0.0154 -0.8202835,0.47794 -0.2193352,0.8739 0.025639,1.21901 0.8115256,1.14327 0.6369657,-0.0614 0.6925011,-0.1264 0.6925011,-0.81093 z m 12.521164,2.00276 c -0.855076,-0.42185 -1.24634,-1.17538 -1.197154,-2.30556 0.03267,-0.75088 -0.06656,-1.00655 -0.58254,-1.5009 l -0.621931,-0.59583 0.535651,-0.42135 0.535651,-0.42135 0.582403,0.55798 c 0.470135,0.45042 0.78768,0.55798 1.647282,0.55798 0.885101,0 1.158775,0.0987 1.621062,0.58472 0.305899,0.3216 0.619184,0.83975 0.696188,1.15144 0.208517,0.84401 -0.455326,2.07957 -1.308936,2.43624 -0.877076,0.36646 -1.086626,0.36169 -1.907676,-0.0434 z m 1.608834,-1.45948 c 0.140241,-0.16898 0.223718,-0.5278 0.185505,-0.79736 -0.05743,-0.40514 -0.198497,-0.4901 -0.813675,-0.4901 -0.616826,0 -0.756171,0.0846 -0.814166,0.49386 -0.03848,0.27163 -0.01757,0.63044 0.04648,0.79735 0.151222,0.39408 1.067727,0.39162 1.395853,-0.004 z m -9.722773,-3.54481 c -2.836714,-1.40415 -3.4517429,-5.08554 -1.2221041,-7.31518 1.8175061,-1.81751 4.5698861,-1.81751 6.3873901,0 1.697123,1.69712 1.816986,4.28068 0.28484,6.13943 -1.288023,1.56259 -3.642473,2.07051 -5.450126,1.17575 z m 3.485192,-1.17091 c 2.118548,-1.00533 2.380753,-4.27372 0.452978,-5.64642 -0.351358,-0.25019 -1.091552,-0.49839 -1.644877,-0.55156 -1.925042,-0.18497 -3.385224,1.01199 -3.5691091,2.92571 -0.248955,2.59093 2.3837121,4.40037 4.7610081,3.27227 z m -2.781998,-2.19869 c -0.518985,-0.54171 -0.563773,-0.67837 -0.318958,-0.97336 0.258837,-0.31187 0.316633,-0.30098 0.633824,0.11954 l 0.349019,0.46271 0.894296,-1.01598 c 0.837657,-0.95162 0.916931,-0.99333 1.251652,-0.65862 0.334721,0.33472 0.284216,0.43142 -0.797404,1.52664 -0.635118,0.6431 -1.211888,1.16928 -1.281713,1.16928 -0.06982,0 -0.398646,-0.28359 -0.730716,-0.6302 z m -10.1694056,1.05213 c -1.7540866,-1.37977 -0.72196716,-4.03659 1.5681284,-4.03659 0.4976922,0 0.8619965,0.19669 1.3783573,0.74419 0.578585,0.61348 0.8537663,0.74419 1.5666542,0.74419 0.8465767,0 0.8647871,0.0157 0.8647871,0.74421 0,0.72852 -0.018205,0.74419 -0.8647871,0.74419 -0.7128879,0 -0.9880692,0.13072 -1.5666542,0.74419 -0.5746635,0.60932 -0.8558939,0.74419 -1.5517498,0.74419 -0.5301246,0 -1.0548805,-0.16124 -1.3947359,-0.42857 z m 2.0670172,-1.18131 c 0.424106,-0.42411 0.424106,-0.82128 0,-1.2454 -0.6422226,-0.64221 -1.5795164,-0.2727 -1.5795164,0.62271 0,0.89539 0.9372938,1.2649 1.5795164,0.62269 z m 17.8621024,0.86569 c -0.578583,-0.61347 -0.853766,-0.74419 -1.566654,-0.74419 -0.846575,0 -0.864787,-0.0157 -0.864787,-0.74419 0,-0.72854 0.01821,-0.74421 0.864787,-0.74421 0.712888,0 0.988071,-0.13071 1.566654,-0.74419 0.579078,-0.614 0.853492,-0.74419 1.568569,-0.74419 1.522138,0 2.534736,1.38438 2.128668,2.91025 -0.249662,0.93814 -1.100699,1.55491 -2.145486,1.55491 -0.695856,0 -0.977087,-0.13487 -1.551751,-0.74419 z m 2.203832,-0.78671 c 0.327979,-0.32798 0.327979,-1.07537 0,-1.40335 -0.395507,-0.39551 -0.963323,-0.3025 -1.327495,0.21741 -0.412248,0.58856 -0.411954,0.69186 0.0032,1.10696 0.397936,0.39794 0.971219,0.43212 1.324364,0.079 z M 7.778651,279.46515 C 7.4079442,278.95626 7.2403668,278.89799 6.2923461,278.9483 5.371892,278.9972 5.1287165,278.92 4.5371599,278.39145 c -1.840879,-1.64482 0.1897372,-4.62249 2.4279902,-3.56036 0.9092481,0.43146 1.4614119,1.48776 1.2722121,2.43376 -0.1131814,0.56587 -0.026358,0.78527 0.5433632,1.37307 l 0.6780622,0.69959 -0.5351013,0.3506 c -0.6827147,0.44734 -0.6524757,0.45322 -1.1450353,-0.22296 z M 6.77892,276.84932 c 0,-0.61518 -0.084971,-0.75625 -0.4901151,-0.81367 -0.6244521,-0.0886 -1.1045895,0.30728 -1.1045895,0.91057 0,0.64076 0.1922523,0.78468 0.9491808,0.71053 0.5839455,-0.0571 0.6455238,-0.13423 0.6455238,-0.80743 z m 10.628045,2.76049 c -0.377994,-0.41768 -0.373286,-0.44445 0.179673,-1.02162 0.460836,-0.48101 0.567838,-0.79329 0.567838,-1.65726 0,-1.16742 0.440615,-1.84994 1.439434,-2.22969 1.331179,-0.50611 2.90976,0.67589 2.90976,2.17876 0,0.70525 -0.126275,0.97618 -0.689561,1.47946 -0.558224,0.49878 -0.884351,0.61613 -1.712278,0.61613 -0.81598,0 -1.123667,0.10748 -1.522101,0.53158 -0.603426,0.64231 -0.67843,0.64887 -1.172765,0.1026 z m 3.469139,-2.16513 c 0.429812,-0.42982 0.304964,-1.22813 -0.223258,-1.4276 -0.684302,-0.2584 -1.222606,0.0958 -1.222606,0.80428 0,0.32723 0.06378,0.65875 0.141751,0.73672 0.23103,0.23103 1.029079,0.16163 1.304113,-0.11345 z m -8.462563,-0.39701 c 0,-0.71288 -0.130717,-0.98807 -0.744196,-1.56665 -0.603913,-0.56957 -0.744194,-0.85856 -0.744194,-1.53312 0,-1.57665 1.336831,-2.59796 2.852717,-2.1794 0.852752,0.23545 1.610267,1.20438 1.611659,2.06144 0.0011,0.66761 -0.550872,1.68252 -1.064541,1.95741 -0.325345,0.17413 -0.423054,0.44569 -0.423054,1.17576 0,0.94321 -0.0049,0.94934 -0.744196,0.94934 -0.728524,0 -0.744195,-0.0183 -0.744195,-0.86478 z m 1.66542,-3.05128 c 0.09768,-0.49303 -0.349254,-0.97436 -0.904735,-0.97436 -0.982758,0 -1.307808,1.01736 -0.504762,1.57983 0.399258,0.27965 0.532897,0.28555 0.903666,0.0399 0.239313,-0.15861 0.466937,-0.44899 0.505831,-0.64529 z"
       id="path826"
       inkscape:connector-curvature="0" />
  </g>
</svg>
