<svg xmlns="http://www.w3.org/2000/svg" width="387" height="37" viewBox="0 0 387 37">
  <defs>
    <style>
      .cls-1 {
        fill: #fafaf9;
        fill-rule: evenodd;
      }
    </style>
  </defs>
  <path id="ima_proyectate_.svg" class="cls-1" d="M325.648,1230.46H312v36.1h6.817v-11.45h6.831c8.382,0,12.2-6.38,12.2-12.3C337.848,1236.67,333.657,1230.46,325.648,1230.46Zm0,18.04h-6.831v-11.33h6.831c3.787,0,5.481,2.85,5.481,5.69A5.34,5.34,0,0,1,325.648,1248.5Zm41.169-6.23c0-5.87-4.207-11.81-12.248-11.81h-13.6v36.1h6.716v-29.39h6.882c3.766,0,5.481,2.64,5.481,5.1a5.082,5.082,0,0,1-5.481,5.14h-6.755v3.52l13.193,15.63h8.8l-11.322-13.26A11.267,11.267,0,0,0,366.817,1242.27Zm20.368-12.25a18.808,18.808,0,0,0-13.2,5.46h0a18.667,18.667,0,1,0,26.451-.01A18.785,18.785,0,0,0,387.185,1230.02Zm0,30.27a9.919,9.919,0,0,1-1.219-.07,8,8,0,0,0,1.007-8.29l10.1-9.94a11.7,11.7,0,0,1-1.458,14.81A12.122,12.122,0,0,1,387.185,1260.29Zm0-23.57a12.014,12.014,0,0,1,6.895,2.23l-9.842,9.68a8.369,8.369,0,0,0-8.86-.51,11.58,11.58,0,0,1,3.481-7.92A11.837,11.837,0,0,1,387.185,1236.72Zm-7.781,14.61a3.959,3.959,0,0,1,3.985,3.92,3.914,3.914,0,0,1-2.088,3.43,11.92,11.92,0,0,1-2.449-1.88,11.662,11.662,0,0,1-2.625-3.89A4,4,0,0,1,379.4,1251.33Zm42.9-6.49-9.062-14.33h-7.978l13.632,21.44v14.61h6.815v-14.61l13.684-21.44h-8.029Zm24.386,7.02H462.52v-6.71H446.687v-7.98H462.87v-6.66h-23v36.05h23.05v-6.66H446.687v-8.04Zm47.322,0.7a11.258,11.258,0,0,1-18.739,4.21,11.713,11.713,0,0,1,0-16.42,11.05,11.05,0,0,1,7.967-3.43,10.532,10.532,0,0,1,10.476,7.2l0.2,0.57h6.712l-0.272-1.06a17.27,17.27,0,0,0-17.119-13.32,17.968,17.968,0,0,0-12.706,5.37l-0.009.01a18.449,18.449,0,0,0,0,25.74,17.562,17.562,0,0,0,12.71,5.37c8.413,0,15.23-5.4,17.368-13.76l0.27-1.05h-6.667Zm34.944-22.1H501.059v6.31h10.588v29.93h6.767v-29.93h10.539v-6.31Zm9.743-.44-14.719,36.54h7.307l0.211-.55c0.827-2.15,2.124-5.28,3.963-9.58h11.385l4.2,10.13h7.242l-14.718-36.54H538.7Zm5.566,20.05H538l3.165-8.74Zm8.993-13.3h10.589v29.93h6.766v-29.93h10.54v-6.31H553.255v6.31Zm37.585,15.09h15.833v-6.71H590.84v-7.98h16.183v-6.66h-23v36.05h23.051v-6.66H590.84v-8.04Zm55.982-5.35-11.083-16.05h-5.413v36.1h6.767v-22.3l7.82,11.44h3.765l7.82-11.44v22.3h6.719v-36.1H657.9Zm41.38,5.41-2.457-3.32L699,1230.51h-8.263l-9.1,12.28-9.052-12.28h-8.312l2.927,4.01c3.089,4.23,7.275,9.96,10.323,14.09l-13.261,17.95h8.323l9.052-12.29,9.1,12.29H699l-0.983-1.34C695.441,1261.7,691.561,1256.46,688.2,1251.92Z" transform="translate(-312 -1230)"/>
</svg>
