<svg xmlns="http://www.w3.org/2000/svg" width="787.03" height="942.001" viewBox="0 0 787.03 942.001">
  <defs>
    <style>
      .cls-1 {
        fill: #f1f1f1;
        fill-rule: evenodd;
        mix-blend-mode: multiply;
      }
    </style>
  </defs>
  <path id="marcadeagua_legal.svg" class="cls-1" d="M2596.54,1282.03a15,15,0,0,0-14.99,15.01,67.685,67.685,0,0,1-103.8,57.36l56.03-56.09,49.16-49.18a15,15,0,1,0-21.2-21.23l-31.92,31.94s-0.04.03-.07,0.05l-31.92,31.95-63.71,63.75,0.02,0.02-75.12,75.19-4.88-24.41a21.993,21.993,0,0,0-37.13-11.25l-88.67,88.76a15,15,0,1,0,21.2,21.22l78.12-78.2,5.74,28.69a19.662,19.662,0,0,0,33.19,10.06l89.67-89.76a97.516,97.516,0,0,0,155.28-78.87A15.008,15.008,0,0,0,2596.54,1282.03ZM2564.5,965.98c-257.15,0-466.09,206.51-470.41,462.9-0.04,2.69-.1,5.39-0.1,8.1q0,18.045,1.34,35.76a469.533,469.533,0,0,0,128.19,288.78q10.425,10.95,21.53,21.22a473.326,473.326,0,0,0,70.5,53.94q13.14,8.22,26.84,15.59a468.425,468.425,0,0,0,222.11,55.7,475.656,475.656,0,0,0,58.2-3.58,467.96,467.96,0,0,0,231.81-96.51q18.06-14.16,34.67-30.01a473.453,473.453,0,0,0,71.34-86.46q9.405-14.655,17.76-30.02a468.627,468.627,0,0,0,36.02-85.82q4.545-14.8,8.13-30.01a472.679,472.679,0,0,0,12.59-108.58C3035.02,1176.85,2824.36,965.98,2564.5,965.98Zm376.73,301.75c3.12,1.56,8.39,5.25,13.23,13.31,3.45,8.7,6.66,17.47,9.54,26.33H2861.68c5.37-5.98,10.73-11.9,16.03-17.63,5.91-6.39,15.4-12.7,23.36-16.5l0.03-.02a45.985,45.985,0,0,1,8.3-3.15C2917.79,1267.33,2930.9,1264.37,2941.23,1267.73Zm-172.29,154.75,2.93-8.91c8.72-10.82,32.5-40.1,60.21-72.37h70.89l-81.2,81.28h-52.83Zm140.41,28.99-93.98,94.09h-86.88l30.92-94.09h149.94Zm-137.59-380.06a416.656,416.656,0,0,1,54.54,37,175.564,175.564,0,0,0-203.56,32.52l-1.93,1.94c-0.29-.03-0.58-0.06-0.87-0.08a224.9,224.9,0,0,0-73.16-27.87l42.24-42.29h182.74v-1.22Zm-207.26-54.78a417.015,417.015,0,0,1,148.19,27.01H2416.31A417.055,417.055,0,0,1,2564.5,1016.63Zm-296.92,123.12a419.634,419.634,0,0,1,87.55-67.12h186.11l-38.17,38.21a222.08,222.08,0,0,0-143.74,53.59h-114.4C2252.16,1155.97,2259.65,1147.69,2267.58,1139.75Zm-90.01,133.63a418,418,0,0,1,44.75-79.95H2329l-166.31,121.13A417.637,417.637,0,0,1,2177.57,1273.38Zm0,327.2a418.074,418.074,0,0,1-32.98-163.6c0-4.65.19-9.27,0.34-13.89l86.86-86.95-71.39,19.54,190.46-138.74,17.9-17.91a192.01,192.01,0,0,1,247.01-20.89c15.83,11.83,57.68,46.17,74.12,89.67a16.9,16.9,0,1,0,31.61-11.96c-16.14-42.7-51.02-76.71-73.28-95.17a143.555,143.555,0,0,1,200.31,2.8l19,19.03,61.05,61.11c-4.16-4.17-9.73-5.92-16.02-5.92-19.32,0-45.43,16.53-58.23,30.38-52.78,57.1-110.91,130.02-110.91,130.02l-48.47,147.46H2438.09L2259.3,1725.51A418.482,418.482,0,0,1,2177.57,1600.58Zm103.2,146.21,169.79-170.89h125.5l-223.64,223.87A418.284,418.284,0,0,1,2280.77,1746.79Zm120.3,77.52c-7.14-3.03-14.15-6.29-21.08-9.68l123.09-123.22h123.87l-86.6,86.46h-0.33l-68.86,68.93A415.643,415.643,0,0,1,2401.07,1824.31Zm231.11,27.52a418.364,418.364,0,0,1-124.98,1.53l45.54-45.48h122.47Zm95.76-27.52a418.968,418.968,0,0,1-41.5,14.99l30.76-31.42h45C2751.06,1813.84,2739.65,1819.35,2727.94,1824.31Zm133.49-90.11a422.808,422.808,0,0,1-51.31,43.67H2582.81l86.61-86.46h229.31A423.6,423.6,0,0,1,2861.43,1734.2Zm90.01-133.62a420.072,420.072,0,0,1-31.9,60.81H2533.07l85.4-85.49h126.76l-0.03-.33h215.77C2958.03,1583.98,2954.92,1592.33,2951.44,1600.58Zm18.77-55.02H2863.14l93.99-94.09h26.93A418.355,418.355,0,0,1,2970.21,1545.56Zm-100.66-123.08,81.2-81.28h22.62a419.374,419.374,0,0,1,10.69,81.28H2869.55Zm-105.33,15.27-34.42-1.54c4.02-89.6-43.36-177.18-43.84-178.06l30.19-16.61C2718.29,1245.44,2768.68,1338.27,2764.22,1437.75Z" transform="translate(-2248 -965.969)"/>
</svg>
