<?xml version="1.0" encoding="UTF-8" standalone="no"?>
<svg
   xmlns:dc="http://purl.org/dc/elements/1.1/"
   xmlns:cc="http://creativecommons.org/ns#"
   xmlns:rdf="http://www.w3.org/1999/02/22-rdf-syntax-ns#"
   xmlns:svg="http://www.w3.org/2000/svg"
   xmlns="http://www.w3.org/2000/svg"
   xmlns:sodipodi="http://sodipodi.sourceforge.net/DTD/sodipodi-0.dtd"
   xmlns:inkscape="http://www.inkscape.org/namespaces/inkscape"
   version="1.0"
   width="366.000000pt"
   height="189.000000pt"
   viewBox="0 0 366.000000 189.000000"
   preserveAspectRatio="none"
   id="svg6"
   sodipodi:docname="privacidad_legal.svg"
   inkscape:version="0.92.3 (2405546, 2018-03-11)">
  <defs
     id="defs10" />
  <sodipodi:namedview
     pagecolor="#ffffff"
     bordercolor="#666666"
     borderopacity="1"
     objecttolerance="10"
     gridtolerance="10"
     guidetolerance="10"
     inkscape:pageopacity="0"
     inkscape:pageshadow="2"
     inkscape:window-width="1920"
     inkscape:window-height="1017"
     id="namedview8"
     showgrid="false"
     inkscape:zoom="1.0606602"
     inkscape:cx="-255.11293"
     inkscape:cy="124.72595"
     inkscape:window-x="-8"
     inkscape:window-y="-8"
     inkscape:window-maximized="1"
     inkscape:current-layer="svg6" />
  <metadata
     id="metadata2">
Created by potrace 1.15, written by Peter Selinger 2001-2017
<rdf:RDF>
  <cc:Work
     rdf:about="">
    <dc:format>image/svg+xml</dc:format>
    <dc:type
       rdf:resource="http://purl.org/dc/dcmitype/StillImage" />
    <dc:title></dc:title>
  </cc:Work>
</rdf:RDF>
</metadata>
  <g
     transform="translate(0.000000,189.000000) scale(0.100000,-0.100000)"
     fill="#000000"
     stroke="none"
     id="g4" />
  <g
     style="fill:#66b32e;fill-opacity:1;stroke:none"
     transform="matrix(-0.10000001,0,0,-0.10000001,339.55858,200.18937)"
     id="g6">
    <path
       inkscape:connector-curvature="0"
       d="m 1665,1870 c -126,-4 -261,-13 -300,-19 -38,-6 -95,-10 -125,-11 -71,0 -360,-39 -383,-51 -16,-9 -60,-15 -322,-49 -74,-9 -107,-22 -88,-32 4,-3 116,10 248,28 132,18 244,33 248,34 5,0 6,-13 2,-29 -5,-24 -2,-32 15,-41 12,-6 20,-13 18,-16 -2,-2 -92,-17 -198,-34 -107,-17 -196,-33 -198,-35 -7,-6 25,-35 38,-35 6,0 10,-5 8,-12 -6,-18 -264,-70 -320,-64 -27,3 -48,1 -48,-3 0,-12 26,-21 58,-21 15,0 36,-7 46,-15 18,-14 18,-15 -10,-25 -69,-25 -83,-33 -78,-41 3,-5 18,-9 35,-9 40,0 36,-18 -8,-37 -51,-20 -51,-22 -23,-43 l 24,-18 -25,5 c -29,5 -196,-32 -216,-48 -7,-7 -13,-20 -13,-31 0,-18 6,-19 108,-12 75,4 120,3 152,-6 l 45,-13 -65,-14 c -80,-16 -190,-54 -190,-65 0,-4 10,-8 23,-9 12,-1 -4,-8 -35,-16 -61,-16 -70,-39 -13,-30 54,9 49,-5 -12,-37 C 22,994 4,978 2,963 c -3,-21 0,-23 46,-23 61,0 112,10 112,21 0,5 -18,8 -40,7 -40,-1 -65,8 -39,15 102,30 175,35 291,22 102,-12 71,-27 -40,-20 -66,4 -90,2 -75,-4 12,-6 73,-13 135,-18 101,-6 108,-8 63,-14 -27,-4 -86,-8 -130,-8 -60,-1 -87,-6 -109,-20 -26,-18 -27,-20 -10,-30 16,-9 17,-12 4,-20 -8,-6 -12,-12 -9,-15 2,-3 57,-8 122,-12 79,-5 116,-11 114,-18 -3,-7 -32,-10 -78,-9 -49,1 -62,-1 -39,-5 33,-7 32,-8 -32,-21 -38,-7 -65,-17 -62,-22 3,-5 40,-9 82,-10 109,-1 126,-10 61,-33 -45,-16 -50,-21 -35,-31 9,-7 16,-17 16,-22 0,-13 34,-23 78,-23 18,0 42,-5 53,-11 32,-17 5,-39 -45,-38 -39,1 -40,1 -13,11 28,10 37,28 14,28 -24,0 -209,-58 -220,-69 -7,-7 0,-15 24,-24 77,-31 77,-31 37,-35 -42,-4 -45,-8 -23,-33 15,-15 13,-17 -19,-23 -44,-8 -63,-30 -46,-51 15,-17 59,-19 113,-4 32,9 41,7 64,-10 29,-23 64,-26 127,-10 24,6 54,9 67,7 19,-3 8,-11 -55,-43 -43,-21 -81,-45 -84,-53 -15,-39 46,-35 336,23 l 213,42 -28,-31 C 928,309 914,294 914,292 913,290 850,280 774,269 616,246 464,200 437,167 c -18,-21 -18,-22 5,-28 14,-3 74,-2 134,3 77,7 118,7 140,-1 24,-9 40,-8 75,4 101,36 321,63 529,65 84,1 171,10 265,27 115,21 161,24 260,21 70,-3 160,0 215,8 238,32 441,46 735,49 269,3 291,2 165,-6 -80,-5 -239,-23 -354,-40 -209,-29 -286,-34 -139,-8 78,14 78,14 28,16 -27,2 -149,-13 -270,-32 l -220,-35 130,5 c 72,3 144,8 160,11 25,4 27,3 13,-6 -10,-6 -18,-15 -18,-20 0,-15 53,-12 196,10 150,22 314,36 540,46 174,7 231,-2 304,-47 l 35,-22 -89,-18 c -49,-10 -93,-22 -99,-28 -15,-15 36,-24 98,-16 46,5 57,3 74,-14 21,-21 59,-27 129,-22 17,1 32,-3 32,-9 0,-5 9,-10 20,-10 12,0 20,7 20,16 0,10 -6,14 -14,11 -9,-4 -13,-1 -10,6 2,7 -17,24 -43,38 l -46,27 56,12 c 37,9 57,18 57,28 0,10 -7,13 -22,8 -13,-3 -48,-9 -78,-12 -49,-6 -60,-3 -94,20 -21,14 -44,27 -50,28 -21,2 119,16 182,17 l 62,1 -2,697 -3,698 -55,8 c -30,4 -57,11 -60,16 -3,5 -25,14 -49,21 -66,18 -45,20 49,4 116,-19 120,-18 120,10 0,33 -23,38 -240,45 -155,6 -181,9 -157,19 78,34 -8,59 -268,78 -109,8 -105,-5 8,-27 l 82,-17 h -80 c -85,-1 -189,14 -130,18 28,2 28,3 -10,11 -74,18 -768,29 -1090,19 z"
       id="path4"
       style="fill:#66b32e;fill-opacity:1" />
  </g>
</svg>
