<?xml version="1.0" encoding="utf-8"?>
<!-- Generator: Adobe Illustrator 21.1.0, SVG Export Plug-In . SVG Version: 6.00 Build 0)  -->
<svg version="1.1" xmlns="http://www.w3.org/2000/svg" xmlns:xlink="http://www.w3.org/1999/xlink" x="0px" y="0px"
	 viewBox="0 0 485.3 77.5" style="enable-background:new 0 0 485.3 77.5;" xml:space="preserve">
<style type="text/css">
	.st0{fill:none;stroke:#9D9D9C;stroke-width:0.5;stroke-miterlimit:10;}
	.st1{fill:#66B32E;}
	.st2{fill:#FFFFFF;}
	.st3{fill:#B1D5A2;}
	.st4{fill:#E73D26;}
	.st5{fill:#59B031;}
	.st6{fill:#813812;}
	.st7{fill:#616160;}
	.st8{fill:none;stroke:#9D9D9C;stroke-width:0.75;stroke-miterlimit:10;}
	.st9{clip-path:url(#SVGID_2_);fill:none;stroke:#000000;stroke-width:15;}
	.st10{clip-path:url(#SVGID_2_);fill:#FFFFFF;}
	.st11{fill:#706F6F;}
	.st12{fill:none;stroke:#878787;stroke-width:0.5;}
	.st13{fill:none;stroke:#000000;stroke-width:6;}
	.st14{fill:none;stroke:#000000;stroke-width:19;}
	.st15{fill:none;stroke:#000000;stroke-width:0.75;}
	.st16{fill:none;}
	.st17{fill:none;stroke:#000000;stroke-width:12;stroke-linecap:round;stroke-linejoin:round;}
	.st18{fill:none;stroke:#000000;stroke-width:12;stroke-miterlimit:10;}
	.st19{fill:none;stroke:#000000;stroke-miterlimit:10;}
	.st20{fill:#B2B2B2;}
	.st21{fill:#9D9D9C;}
	.st22{fill:none;stroke:#000000;}
	.st23{fill:none;stroke:#616160;stroke-miterlimit:10;}
	.st24{fill:none;stroke:#000000;stroke-width:24;stroke-linecap:round;stroke-miterlimit:10;}
	.st25{fill:none;stroke:#FFFFFF;stroke-width:38;stroke-linecap:round;stroke-miterlimit:10;}
	.st26{fill:none;stroke:#000000;stroke-width:5;stroke-miterlimit:10;}
	.st27{fill:none;stroke:#000000;stroke-width:0.25;stroke-miterlimit:10;}
	.st28{fill:none;stroke:#000000;stroke-width:10;stroke-miterlimit:10;}
	.st29{fill:#FFFFFF;stroke:#000000;stroke-width:16;stroke-miterlimit:10;}
	.st30{fill:none;stroke:#000000;stroke-width:16;stroke-miterlimit:10;}
	.st31{fill:none;stroke:#000000;stroke-width:16;stroke-linecap:round;stroke-miterlimit:10;}
	.st32{clip-path:url(#SVGID_4_);}
	.st33{clip-path:url(#SVGID_6_);}
	.st34{fill:none;stroke:#000000;stroke-width:27;stroke-miterlimit:10;}
	.st35{clip-path:url(#SVGID_8_);}
	.st36{fill:none;stroke:#000000;stroke-width:7;stroke-linecap:round;stroke-miterlimit:10;}
	.st37{fill:none;stroke:#000000;stroke-width:6;stroke-miterlimit:10;}
	.st38{fill:none;stroke:#000000;stroke-width:7;stroke-miterlimit:10;}
	.st39{clip-path:url(#SVGID_10_);}
	.st40{clip-path:url(#SVGID_12_);}
	.st41{clip-path:url(#SVGID_14_);}
	.st42{clip-path:url(#SVGID_16_);fill:#DC0D15;}
	.st43{fill:#DC0D15;}
	.st44{fill:#211311;}
	.st45{fill:#E30613;}
	.st46{fill:#010202;}
	.st47{fill:#2A7F34;}
	.st48{fill:#311E11;}
	.st49{fill:#E5CF09;}
	.st50{fill:#E6312C;}
	.st51{fill:#CC4517;}
	.st52{fill:#1E7853;}
	.st53{fill:#31AA48;}
	.st54{fill:#652911;}
	.st55{fill:none;stroke:#FFFFFF;stroke-miterlimit:10;}
	.st56{fill:none;stroke:#7EBA28;stroke-miterlimit:10;}
	.st57{fill:#FFFFFF;stroke:#FFFFFF;stroke-miterlimit:10;}
	.st58{clip-path:url(#SVGID_18_);fill:#311E11;}
	.st59{clip-path:url(#SVGID_18_);}
	.st60{clip-path:url(#SVGID_20_);fill:#311E11;}
	.st61{clip-path:url(#SVGID_20_);}
	.st62{clip-path:url(#SVGID_22_);}
	.st63{clip-path:url(#SVGID_22_);fill:#311E11;}
	.st64{clip-path:url(#SVGID_22_);fill:#66B32E;}
	.st65{clip-path:url(#SVGID_22_);fill:#E73D26;}
	.st66{clip-path:url(#SVGID_24_);fill:#311E11;}
	.st67{clip-path:url(#SVGID_24_);fill:#66B32E;}
	.st68{clip-path:url(#SVGID_24_);fill:#E73D26;}
	.st69{clip-path:url(#SVGID_26_);}
	.st70{clip-path:url(#SVGID_26_);fill:#311E11;}
	.st71{clip-path:url(#SVGID_26_);fill:#66B32E;}
	.st72{clip-path:url(#SVGID_26_);fill:#E73D26;}
	.st73{fill:none;stroke:#E73D26;stroke-miterlimit:10;}
</style>
<g id="Capa_2">
</g>
<g id="Capa_1">
	<g>
		<g>
			<g>
				<g>
					<path class="st2" d="M113.5,21.7H99.9v36.5h6.8V46.7h6.8c8.3,0,12.2-6.5,12.2-12.4C125.6,28,121.5,21.7,113.5,21.7z M113.5,40
						h-6.8V28.5h6.8c3.8,0,5.5,2.9,5.5,5.8C119,37,117.2,40,113.5,40z"/>
					<path class="st2" d="M154.5,33.7c0-5.9-4.2-12-12.2-12h-13.5v36.5h6.7V28.5h6.9c3.8,0,5.5,2.7,5.5,5.2c0,2.5-1.7,5.2-5.5,5.2
						h-6.7v3.6l13.1,15.8h8.8l-11.3-13.4C151.9,43.2,154.5,38.2,154.5,33.7z"/>
					<path class="st2" d="M174.8,21.3c-4.9,0-9.7,2-13.1,5.5l0,0c-3.5,3.6-5.4,8.3-5.4,13.2c0,4.9,1.9,9.6,5.4,13.2
						c3.4,3.5,8.2,5.5,13.2,5.5c5,0,9.7-2,13.2-5.5c3.5-3.6,5.4-8.3,5.4-13.2c0-4.9-1.9-9.6-5.4-13.2
						C184.4,23.3,179.7,21.3,174.8,21.3z M174.8,51.9c-0.4,0-0.8,0-1.2-0.1c1.1-1.4,1.7-3.1,1.7-5c0-1.2-0.3-2.3-0.7-3.4l10.1-10.1
						c1.3,1.9,2,4.2,2,6.6c0,3.2-1.2,6.1-3.4,8.4C180.9,50.7,177.9,51.9,174.8,51.9z M174.8,28.1c2.4,0,4.9,0.8,6.9,2.2l-9.8,9.8
						c-1.4-1-3-1.6-4.8-1.6c-1.5,0-2.8,0.4-4,1c0.1-3,1.3-5.9,3.5-8C168.7,29.4,171.7,28.1,174.8,28.1z M167,42.9c2.2,0,4,1.8,4,4
						c0,1.5-0.8,2.8-2.1,3.5c-0.9-0.5-1.7-1.1-2.4-1.9c-1.1-1.1-2-2.5-2.6-3.9C164.6,43.5,165.7,42.9,167,42.9z"/>
					<polygon class="st2" points="209.8,36.3 200.7,21.8 192.8,21.8 206.4,43.5 206.4,58.3 213.1,58.3 213.1,43.5 226.8,21.8 
						218.8,21.8 					"/>
					<polygon class="st2" points="234,43.4 249.8,43.4 249.8,36.6 234,36.6 234,28.5 250.2,28.5 250.2,21.8 227.3,21.8 227.3,58.3 
						250.2,58.3 250.2,51.5 234,51.5 					"/>
					<path class="st2" d="M281.2,44.1c-1.6,4.8-5.7,7.7-10.7,7.7c-3,0-5.8-1.2-7.9-3.5c-2.2-2.3-3.3-5.2-3.3-8.3
						c0-3.2,1.2-6.1,3.3-8.4c2.1-2.2,5-3.5,7.9-3.5c5,0,8.8,2.7,10.4,7.3l0.2,0.6h6.7l-0.3-1.1c-2.1-8.2-8.8-13.5-17-13.5
						c-4.7,0-9.3,2-12.7,5.4l0,0c-3.4,3.6-5.2,8.2-5.2,13.1c0,4.8,1.8,9.4,5.2,13c3.3,3.5,7.8,5.4,12.7,5.4
						c8.4,0,15.2-5.5,17.3-13.9l0.3-1.1h-6.6L281.2,44.1z"/>
					<polygon class="st2" points="316,21.7 288.2,21.7 288.2,28.1 298.7,28.1 298.7,58.4 305.5,58.4 305.5,28.1 316,28.1 					"/>
					<path class="st2" d="M325.7,21.3l-14.7,37h7.3l0.2-0.6c0.8-2.2,2.1-5.3,3.9-9.7h11.3l4.2,10.2h7.2l-14.7-37H325.7z M331.2,41.6
						H325l3.2-8.8L331.2,41.6z"/>
					<polygon class="st2" points="340.2,28.1 350.7,28.1 350.7,58.4 357.5,58.4 357.5,28.1 368,28.1 368,21.7 340.2,21.7 					"/>
					<polygon class="st2" points="377.6,43.4 393.4,43.4 393.4,36.6 377.6,36.6 377.6,28.5 393.7,28.5 393.7,21.8 370.8,21.8 
						370.8,58.3 393.8,58.3 393.8,51.5 377.6,51.5 					"/>
					<polygon class="st2" points="433.4,38 422.3,21.7 416.9,21.7 416.9,58.3 423.7,58.3 423.7,35.7 431.5,47.3 435.2,47.3 
						443,35.7 443,58.3 449.7,58.3 449.7,21.7 444.4,21.7 					"/>
					<path class="st2" d="M474.6,43.5l-2.4-3.4l13.2-18.3h-8.2L468,34.2l-9-12.4h-8.3l2.9,4.1c3.1,4.3,7.2,10.1,10.3,14.3
						l-13.2,18.2h8.3l9-12.4l9.1,12.4h8.2l-1-1.4C481.8,53.4,477.9,48.1,474.6,43.5z"/>
				</g>
				<circle class="st2" cx="404.5" cy="54.9" r="3.3"/>
			</g>
		</g>
		<g>
			<path class="st57" d="M38.7,0.5C17.8,0.5,0.9,17.3,0.5,38.1c0,0.2,0,0.4,0,0.7c0,1,0,1.9,0.1,2.9C1.3,50.7,5.1,58.9,11,65.1
				c0.6,0.6,1.1,1.2,1.7,1.7c1.8,1.6,3.7,3.1,5.7,4.4c0.7,0.4,1.4,0.9,2.2,1.3c2.2,1.2,4.6,2.2,7.1,2.9c3.5,1,7.1,1.6,11,1.6
				c1.6,0,3.2-0.1,4.7-0.3c7.1-0.9,13.5-3.7,18.8-7.8c1-0.8,1.9-1.6,2.8-2.4c2.2-2.1,4.1-4.5,5.8-7c0.5-0.8,1-1.6,1.4-2.4
				c1.2-2.2,2.2-4.5,2.9-7c0.2-0.8,0.5-1.6,0.7-2.4c0.7-2.8,1-5.8,1-8.8C77,17.6,59.8,0.5,38.7,0.5z M70.4,26.1
				c0.3,0.7,0.5,1.4,0.8,2.1h-8.3c0.4-0.5,0.9-1,1.3-1.4c0.5-0.5,1.3-1,1.9-1.3c0.3-0.1,0.5-0.2,0.7-0.3c0.7-0.2,1.7-0.5,2.6-0.2
				C69.6,25.1,70,25.4,70.4,26.1z M55.6,9.1c1.6,0.9,3,1.9,4.4,3c-2-1-4.2-1.5-6.4-1.5c-3.8,0-7.4,1.5-10.1,4.2l-0.2,0.2
				c0,0,0,0-0.1,0c-1.8-1.1-3.8-1.9-5.9-2.3l3.4-3.4h14.8V9.1z M38.7,4.6c4.2,0,8.2,0.7,12,2.2H26.7C30.5,5.4,34.6,4.6,38.7,4.6z
				 M14.6,14.6c2.1-2.1,4.5-4,7.1-5.4h15.1l-3.1,3.1c-4.3,0-8.4,1.6-11.7,4.3h-9.3C13.4,15.9,14,15.3,14.6,14.6z M7.3,25.5
				c1-2.3,2.2-4.5,3.6-6.5h8.7L6.1,28.8C6.4,27.7,6.8,26.6,7.3,25.5z M7.3,52c-1.8-4.2-2.7-8.7-2.7-13.3c0-0.4,0-0.8,0-1.1l7.1-7.1
				l-5.8,1.6l15.5-11.3l1.5-1.5c3-3,7-4.6,11-4.6c3.2,0,6.3,1,9,2.9c1.3,1,4.7,3.8,6,7.3c0.2,0.5,0.7,0.9,1.3,0.9
				c0.2,0,0.3,0,0.5-0.1c0.7-0.3,1.1-1.1,0.8-1.8c-1.3-3.5-4.1-6.2-6-7.7c2.2-2.1,5.1-3.2,8-3.2c3,0,6,1.1,8.3,3.4l1.5,1.5l5,5
				c-0.3-0.3-0.8-0.5-1.3-0.5c-1.6,0-3.7,1.3-4.7,2.5c-4.3,4.6-9,10.6-9,10.6l-3.9,12H28.5L13.9,62.2C11.1,59.2,8.9,55.8,7.3,52z
				 M15.7,63.9L29.5,50h10.2L21.5,68.2C19.4,67,17.5,65.5,15.7,63.9z M25.5,70.2c-0.6-0.2-1.2-0.5-1.7-0.8l10-10h10.1l-7,7h0
				L31.1,72C29.2,71.6,27.3,71,25.5,70.2z M52,70.2c-1,0.4-2,0.8-3,1.1l0,0c0,0-0.1,0-0.2,0c0,0-0.1,0-0.1,0.1l0,0
				c-0.6,0.2-2.7,0.7-4.4,1l0,0c-0.1,0-0.1,0-0.2,0c-0.2,0-0.5,0.1-0.7,0.1c-0.1,0-0.1,0-0.2,0c-1.5,0.2-2.9,0.4-4.4,0.4
				c-1.6,0-3.1-0.1-4.7-0.3l3.7-3.7h9.2h4.6h0h3.3C53.9,69.3,53,69.8,52,70.2z M62.9,62.9c-1.3,1.3-2.7,2.5-4.2,3.5H40.2l7-7h18.6
				C65,60.6,64,61.8,62.9,62.9z M70.2,52c-0.7,1.7-1.6,3.4-2.6,4.9H36.2l6.9-6.9h0h5.4h2.7h2.2c0,0,0,0,0,0h17.5
				C70.7,50.7,70.5,51.3,70.2,52z M71.7,47.5H63h-3.9h0h-7.1l2.5-7.6h8.2l0,0H71l0,0h1.8C72.7,42.5,72.4,45.1,71.7,47.5z M69.5,37.6
				H57.3h-1.9l0.2-0.7c0.7-0.9,2.6-3.3,4.9-5.9h5.8h3.9H72c0.5,2.2,0.8,4.4,0.9,6.6H69.5z"/>
			<path class="st57" d="M29.8,33.9c0.7,0.7,1.4,1.2,1.9,1.6l0,0c0,0,0.1,0,0.1,0.1c0.5,0.3,0.9,0.6,1,0.6c0.1,0.1,0.2,0.1,0.3,0.1
				c1,0.5,2.1,0.8,3.3,0.8c4.4,0,7.9-3.6,7.9-7.9c0-0.7-0.5-1.2-1.2-1.2c-0.7,0-1.2,0.5-1.2,1.2c0,3-2.5,5.5-5.5,5.5
				c-1,0-2-0.3-2.8-0.8c-0.5-0.3-1.3-0.9-2.1-1.6l0.2-0.2l1.8-1.8l2.8-2.8l4-4c0.5-0.5,0.5-1.2,0-1.7c-0.5-0.5-1.3-0.5-1.7,0
				l-2.6,2.6h0L33.3,27l-5.2,5.2L22,38.2l-0.4-2c-0.1-0.6-0.6-1.2-1.2-1.4c-0.6-0.2-1.3,0-1.8,0.5l-7.2,7.2c-0.5,0.5-0.5,1.2,0,1.7
				c0.2,0.2,0.6,0.4,0.9,0.4c0.3,0,0.6-0.1,0.9-0.4l6.3-6.3l0.5,2.3c0.1,0.6,0.5,1,1.1,1.2c0.6,0.2,1.2,0,1.6-0.4l6.3-6.3L29.8,33.9
				z"/>
		</g>
	</g>
</g>
</svg>
