<svg xmlns="http://www.w3.org/2000/svg" width="1835" height="676" viewBox="0 0 1835 676" preserveAspectRatio="none">
  <defs>
    <style>
      .cls-1 {
        fill-rule: evenodd;
      }
    </style>
  </defs>
  <path id="Forma_1" data-name="Forma 1" class="cls-1" d="M0,654.422V0H1835V676h-48.04c-0.01-.886-0.01-1.772-0.01-2.657,1.65-.594,3.3-1.188,7.46-2.679-12.27-4.23-22.27-7.678-30.92-10.658,0.82-.3,3.62-1.318,6.93-2.526l-20.34-3.1c0.06-.385.11-0.771,0.17-1.157,2.48-.427,4.95-0.854,7.43-1.28-0.03-.735-0.07-1.469-0.1-2.2-16.38,0-32.77-.253-49.14.042-93.04,1.675-186.02,7.616-279.13,2.556-41.24-2.242-82.56-3.009-123.82-4.989-25.1-1.2-50.15-3.469-75.22-5.2-4.95-.343-10.34-1.251-11.85,7.24,10.89,1.988,21.46,3.916,32.03,5.844a23.1,23.1,0,0,1-12.06,2.578c-32.83-1.9-65.64-4.069-98.47-5.958-19.84-1.142-39.71-2.618-59.57-2.634-13.62-.01-27.23,2.384-40.87,3.4-5.75.428-11.56,0.071-17.34,0.071v0.943l10.08,2.956c-2.46,1.145-3.83,1.779-5.64,2.619l15.63,3.761-0.18,1.483-16.89,1.812c0.11,0.48.23,0.959,0.35,1.439q9.015,1.983,18.01,3.966c-0.17.954-.35,1.908-0.53,2.863L699.027,659.534q0.009-.772.019-1.545H990.231l0.216-2.439c-3.6-.321-7.187-0.811-10.79-0.937-75.407-2.652-150.8-6.23-226.229-7.66-120.647-2.287-241.321-4.181-361.984-4.208-70.028-.015-140.056,3.959-210.086,6.076-4.737.143-12.164,1.629-13.773-.687-6.916-9.954-16.135-5.983-24.463-5.513-20.309,1.147-40.578,3.042-60.855,4.743Q41.127,650.814,0,654.422Zm677.513-19.868c-86.5-5.375-173.033-8.887-259.636-6.091l-0.039,3.2Zm-489.9,4.645,0.135,2.8c10.537-.656,21.067-1.628,31.614-1.908,35.6-.945,71.21-1.53,106.807-2.546,6.2-.177,12.367-1.775,18.548-2.717l-0.441-3.732C291.968,631.984,239.7,633.749,187.616,639.2Z"/>
</svg>
