<svg id="twitter.svg" xmlns="http://www.w3.org/2000/svg" width="25" height="25" viewBox="0 0 25 25">
  <defs>
    <style>
      .cls-1 {
        fill: #2aaae0;
      }

      .cls-2 {
        fill: #fff;
        fill-rule: evenodd;
      }
    </style>
  </defs>
  <circle id="Facebook" class="cls-1" cx="12.5" cy="12.5" r="12.5"/>
  <path id="Forma_12" data-name="Forma 12" class="cls-2" d="M959.051,2525.59a9.558,9.558,0,0,0,6.826,3.44c0-.42-0.032-0.81.006-1.19a3.238,3.238,0,0,1,2.593-2.77,3.375,3.375,0,0,1,2.963.82,0.424,0.424,0,0,0,.358.08c0.608-.19,1.208-0.41,1.795-0.61a3.268,3.268,0,0,1-1.2,1.66c0.264-.05.531-0.08,0.79-0.15s0.532-.17.815-0.22a4.713,4.713,0,0,1-1.274,1.37,0.6,0.6,0,0,0-.249.53,9.325,9.325,0,0,1-4.832,8.31,9.146,9.146,0,0,1-5.532,1.09,9.411,9.411,0,0,1-3.932-1.28c-0.034-.02-0.064-0.05-0.181-0.13a6.817,6.817,0,0,0,4.858-1.37,3.267,3.267,0,0,1-2.309-1.01,9.644,9.644,0,0,1-.817-1.16c0.025-.04.05-0.07,0.075-0.11h1.333a3.489,3.489,0,0,1-2.558-3.27c0.472,0.14.922,0.27,1.371,0.4,0.018-.03.036-0.05,0.055-0.08A3.349,3.349,0,0,1,959.051,2525.59Z" transform="translate(-953 -2518)"/>
</svg>
